<svg width="119" height="46" viewBox="0 0 119 46" fill="none" xmlns="http://www.w3.org/2000/svg">
<path d="M116.692 3.13228H115.303H85.5143H85.5087H84.1248H83.5025H75.5992H74.9419L74.7071 3.77201L72.0156 11.1036H68.3111L69.6751 7.38803L70.1709 6.03638L67.8631 3.13228H66.4751H56.88L56.9866 2.93563L54.6787 0.0315303L53.0433 0.0282113L42.3674 0.00497841L40.3142 0L41.6337 1.6404L42.6499 2.9041H42.6221L42.8298 3.16215L41.9226 5.23153L40.2545 3.13228H38.8634H9.06958H7.06332L8.32867 4.75609L10.4344 7.45856L3.99385 24.962L3.49646 26.3145L5.80433 29.2186H7.19304H33.3691H34.0249L34.2604 28.5797L37.544 19.6798L38.5952 21.0024H40.0659L36.9972 27.959L36.3741 29.3704L38.682 32.2745H40.1726H42.7789H43.2826L43.5667 31.8405L52.0859 18.8501L53.9903 21.2472H55.3806H68.2681L66.9049 24.9628L66.4083 26.3145L68.7162 29.2186H70.1041H78.6305H79.2862L79.5218 28.5797L80.2237 26.6729L82.2467 29.2186H83.6322H109.808H110.465L110.7 28.5797L118.502 7.38886L119 6.03638L116.692 3.13228Z" fill="#2459BA"/>
<path d="M18.2875 12.1017H35.9411L31.0612 25.3212H4.88513L11.5238 7.27924L9.06954 4.13037H38.8634L36.9128 9.41168H19.2632L18.2875 12.1017ZM15.3295 20.0722H24.4543L25.461 17.3498H16.337L15.3295 20.0722Z" fill="white"/>
<path d="M56.7862 7.27924L54.3319 4.13037H66.4761L63.5499 12.1017H72.6739L75.6002 4.13037H84.1258L76.3267 25.3212H67.7972L70.7234 17.3498H53.0737L56.7862 7.27924Z" fill="white"/>
<path d="M84.2476 17.3498L87.9601 7.27924L85.5058 4.13037H115.3L107.501 25.3212H81.3246L83.2441 20.0722H100.894L101.9 17.3498H84.2476ZM94.7246 12.1017H103.848L104.824 9.41168H95.7026L94.7246 12.1017Z" fill="white"/>
<path d="M53.0436 1.02738L42.3669 1.00415L43.9601 2.98475L37.775 17.1061H42.8388L37.8665 28.3782H40.4729L50.3474 13.32H46.3619L53.0436 1.02738Z" fill="#FFAA02"/>
<path d="M106.745 29.03H5.00661L0.846069 42.5051L3.97125 47.0769H105.709L109.87 33.6019L106.745 29.03Z" fill="#2459BA"/>
<path d="M102.431 42.3028H2.07788L5.81823 30.1886H106.171L102.431 42.3028Z" fill="white"/>
<path d="M11.0643 39.927H16.5698C16.6876 39.5437 16.7473 39.3529 16.8651 38.9703H12.4435L13.2107 36.4811H17.0147L17.3035 35.5468H13.4987C13.7417 34.7586 13.985 33.9706 14.2285 33.1829H18.4981C18.6166 32.8004 18.6755 32.6087 18.7933 32.2262H13.4406C12.6485 34.7945 11.8564 37.3615 11.0643 39.927Z" fill="#2459BA"/>
<path d="M31.4348 32.228L28.4178 35.1802L27.2074 32.228H25.9723C26.4784 33.4781 26.9843 34.7288 27.4899 35.9801L23.4225 39.9247H24.6687L27.8934 36.7517C28.3247 37.8099 28.7563 38.8676 29.1882 39.9247H30.4344C29.8874 38.5971 29.341 37.2695 28.7951 35.9419L32.615 32.2263L31.4348 32.228Z" fill="#2459BA"/>
<path d="M44.1386 32.5449C43.7343 32.3325 43.1998 32.2263 42.535 32.2263H39.573C38.7814 34.7919 37.9893 37.3574 37.1967 39.923H38.2806L39.0008 37.5914H40.8757C41.4903 37.6006 42.1012 37.4909 42.6775 37.2678C43.1922 37.066 43.6591 36.7508 44.0463 36.3435C44.4252 35.9396 44.7072 35.4481 44.8691 34.9089C45.041 34.3524 45.0628 33.8723 44.9344 33.4684C44.8686 33.2664 44.7641 33.0803 44.6274 32.9216C44.4906 32.7628 44.3243 32.6347 44.1386 32.5449ZM43.7884 34.9089C43.6345 35.4363 43.3045 35.8887 42.8581 36.1842C42.4071 36.4851 41.835 36.6356 41.1415 36.6356H39.296C39.651 35.4844 40.0062 34.3336 40.3616 33.183H42.2047C42.8976 33.183 43.3767 33.3332 43.642 33.6336C43.9073 33.9339 43.955 34.359 43.7852 34.9089H43.7884Z" fill="#2459BA"/>
<path d="M57.2233 32.5448C56.8201 32.3324 56.2859 32.2262 55.6206 32.2262H52.6609L50.2854 39.9229H51.3693C51.6096 39.1424 51.8505 38.3616 52.0919 37.5805H53.9669C54.134 37.5805 54.2966 37.5739 54.4547 37.5606C54.7555 38.3478 55.0566 39.1352 55.3579 39.9229H56.5389C56.2036 39.0633 55.8689 38.2042 55.5346 37.3457C55.6142 37.32 55.6938 37.2918 55.767 37.2627C56.2816 37.0643 56.7483 36.7508 57.1342 36.3442C57.5135 35.9406 57.7955 35.4489 57.9571 34.9096C58.129 34.3531 58.1507 33.873 58.0224 33.4692C57.9563 33.2666 57.8514 33.0802 57.714 32.9213C57.5767 32.7624 57.4097 32.6343 57.2233 32.5448ZM56.8716 34.9088C56.7171 35.4378 56.3867 35.8921 55.9397 36.1899C55.4877 36.4936 54.9149 36.6457 54.2215 36.6462H52.3808C52.7373 35.4912 53.0936 34.3368 53.4496 33.1829H55.2927C55.9861 33.1829 56.4652 33.3331 56.7299 33.6334C56.9947 33.9338 57.0419 34.3589 56.8716 34.9088Z" fill="#2459BA"/>
<path d="M63.418 39.9229H68.9234C69.042 39.5395 69.1009 39.3487 69.2187 38.9662H64.7971C65.0523 38.1365 65.308 37.3067 65.5643 36.477H69.3659L69.6548 35.5427H65.8524L66.5805 33.1829H70.8509C70.9687 32.8004 71.0276 32.6087 71.1462 32.2262H65.7943C65.0016 34.7918 64.2095 37.3573 63.418 39.9229Z" fill="#2459BA"/>
<path d="M81.8675 32.1389C81.2763 32.126 80.6879 32.2284 80.1327 32.4409C79.6812 32.615 79.2712 32.889 78.931 33.2441C78.6373 33.5518 78.4159 33.9261 78.284 34.3377C78.1577 34.7482 78.1373 35.0837 78.2227 35.3442C78.3054 35.6 78.469 35.8188 78.6867 35.9648C78.9293 36.1285 79.1926 36.2561 79.4689 36.344C79.7676 36.4436 80.0679 36.5299 80.3698 36.6029C80.6471 36.668 80.9195 36.7543 81.1847 36.861C81.3953 36.9383 81.5819 37.0733 81.7251 37.2518C81.845 37.4127 81.8644 37.6252 81.7832 37.889C81.708 38.1237 81.5759 38.3341 81.3996 38.4997C81.1863 38.6952 80.9345 38.8397 80.6619 38.9229C80.2982 39.0338 79.9202 39.0855 79.5414 39.0764C79.0899 39.0838 78.6415 38.9993 78.2211 38.8275C77.8253 38.6582 77.5226 38.4455 77.3131 38.1894L76.647 39.0473C76.8618 39.3328 77.2067 39.5654 77.6815 39.7452C78.1873 39.9306 78.7204 40.0218 79.2565 40.0148C79.8517 40.0271 80.4439 39.9245 81.0033 39.712C81.4597 39.5388 81.875 39.2651 82.2209 38.9096C82.515 38.6063 82.7371 38.2355 82.8695 37.8268C82.9936 37.4235 83.0125 37.0936 82.926 36.8369C82.8406 36.5835 82.6768 36.3669 82.4604 36.2212C82.2174 36.0581 81.9532 35.9323 81.6757 35.8479C81.3765 35.7522 81.0762 35.6659 80.7749 35.589C80.4989 35.5198 80.227 35.4336 79.9608 35.3309C79.7492 35.2572 79.5614 35.124 79.418 34.9459C79.2986 34.7849 79.2806 34.5687 79.3639 34.2971C79.4388 34.0619 79.5694 33.8501 79.7435 33.6814C79.9556 33.4803 80.2074 33.3301 80.4812 33.2416C80.8374 33.1236 81.2098 33.0676 81.5834 33.0757C81.9235 33.076 82.2618 33.126 82.5886 33.2242C82.9108 33.3187 83.211 33.4814 83.4703 33.7021L84.0998 32.8226C83.8144 32.584 83.4834 32.4117 83.1289 32.3173C82.7184 32.1973 82.2939 32.1372 81.8675 32.1389Z" fill="#2459BA"/>
<path d="M92.8272 33.6789C93.0393 33.4778 93.2911 33.3276 93.5649 33.2391C93.9211 33.1211 94.2935 33.0651 94.6672 33.0732C95.0072 33.0734 95.3456 33.1234 95.6723 33.2217C95.9946 33.3162 96.2947 33.4789 96.554 33.6996L97.1835 32.8201C96.8981 32.5815 96.5671 32.4092 96.2126 32.3148C95.8033 32.196 95.3801 32.1368 94.9552 32.1389C94.3639 32.126 93.7755 32.2284 93.2204 32.4409C92.769 32.6153 92.3591 32.8893 92.0187 33.2441C91.725 33.5516 91.5038 33.926 91.3725 34.3377C91.2451 34.7484 91.2252 35.0845 91.3104 35.3442C91.3933 35.5998 91.5569 35.8186 91.7743 35.9648C92.0173 36.1285 92.2808 36.2561 92.5574 36.344C92.8551 36.4436 93.1554 36.5299 93.4583 36.6029C93.7354 36.668 94.0075 36.7542 94.2724 36.861C94.4829 36.9383 94.6696 37.0733 94.8128 37.2518C94.9332 37.4127 94.9526 37.6252 94.8709 37.889C94.796 38.1238 94.6638 38.3343 94.4873 38.4997C94.274 38.6952 94.0222 38.8397 93.7496 38.9229C93.3858 39.0338 93.0079 39.0855 92.6291 39.0764C92.1779 39.0839 91.7296 38.9993 91.3096 38.8275C90.9133 38.6582 90.6103 38.4455 90.4008 38.1894L89.7386 39.0448C89.9546 39.3303 90.2994 39.5629 90.7732 39.7427C91.2789 39.9282 91.8121 40.0195 92.3481 40.0123C92.9431 40.0246 93.5351 39.9219 94.0942 39.7095C94.5506 39.5363 94.9659 39.2626 95.3118 38.9071C95.6059 38.6038 95.828 38.233 95.9604 37.8243C96.0845 37.421 96.1033 37.0911 96.0169 36.8344C95.9315 36.581 95.7677 36.3644 95.5513 36.2187C95.3083 36.0556 95.044 35.9299 94.7666 35.8454C94.4674 35.7497 94.1671 35.6634 93.8658 35.5865C93.5897 35.5173 93.3179 35.4312 93.0516 35.3284C92.8403 35.2548 92.6527 35.1215 92.5097 34.9434C92.3898 34.7825 92.3715 34.5662 92.4548 34.2946C92.5277 34.0601 92.6557 33.8485 92.8272 33.6789Z" fill="#2459BA"/>
</svg>
