<svg width="71" height="68" viewBox="0 0 71 68" fill="none" xmlns="http://www.w3.org/2000/svg"><g opacity=".6"><path d="M63.84 48.224c1.221-7.618 1.792-17.677-7.263-20.078-6.732-1.791-14.448-1.083-21.337-1.102-4.764 0-9.763-.414-14.39.925-6.22 1.81-6.672 4.881-6.593 10.944.059 5.452.846 14.015 4.822 18.168 1.024 1.063 2.382 1.811 3.602 2.618-2.184.079-4.468-.138-6.574.335.04 3.72 7.027 3.307 9.842 2.992 8.326-.906 17.48.531 25.845.945 5.098.236 8.818 1.004 10.078-4.882-1.397-.335-3.05-.276-4.271.118 3.464-1.063 5.393-5.689 6.24-10.964v-.02Zm-32.93-8.032c.688-1.004 1.653-1.752 2.362-2.755.925-1.3 1.712-2.776 2.716-3.996 1.18-1.417 2.697-2.677 4.035-3.898l-5.354-.55c2.894-.257 5.846-1.418 8.66-.375 2.127.788 4.489 1.418 6.457 2.638 1.87 1.161.807 2.342-.236 3.858a97.738 97.738 0 0 1-2.953 3.937c.08-.099 3.918 1.948 4.075 2.598.394 1.476-3.7 4.055-4.764 4.882-1.594 1.22-3.03 2.716-4.586 4.015-2.283 1.91-4.724 3.819-7.283 5.256-.827.453-1.673.689-2.579.846-.295-2.027 1.26-5.393 1.969-7.263.157-.413 1.673-5.334 1.87-5.295-.827-.177-4.96-1.358-5.177-2.244-.118-.492.57-1.319.807-1.654h-.02Z" fill="#F37715"/><path d="M63.84 48.224c1.221-7.618 1.792-17.677-7.263-20.078-6.732-1.791-14.448-1.083-21.337-1.102-4.764 0-9.763-.414-14.39.925-6.22 1.81-6.672 4.881-6.593 10.944.059 5.452.846 14.015 4.822 18.168 1.024 1.063 2.382 1.811 3.602 2.618-2.184.079-4.468-.138-6.574.335.04 3.72 7.027 3.307 9.842 2.992 8.326-.906 17.48.531 25.845.945 5.098.236 8.818 1.004 10.078-4.882-1.397-.335-3.05-.276-4.271.118 3.464-1.063 5.393-5.689 6.24-10.964v-.02Zm-32.93-8.032c.688-1.004 1.653-1.752 2.362-2.755.925-1.3 1.712-2.776 2.716-3.996 1.18-1.417 2.697-2.677 4.035-3.898l-5.354-.55c2.894-.257 5.846-1.418 8.66-.375 2.127.788 4.489 1.418 6.457 2.638 1.87 1.161.807 2.342-.236 3.858a97.738 97.738 0 0 1-2.953 3.937c.08-.099 3.918 1.948 4.075 2.598.394 1.476-3.7 4.055-4.764 4.882-1.594 1.22-3.03 2.716-4.586 4.015-2.283 1.91-4.724 3.819-7.283 5.256-.827.453-1.673.689-2.579.846-.295-2.027 1.26-5.393 1.969-7.263.157-.413 1.673-5.334 1.87-5.295-.827-.177-4.96-1.358-5.177-2.244-.118-.492.57-1.319.807-1.654h-.02Z" fill="url(#a)"/></g><path d="M10.774 16.473c-5.512-.197-6.358 3.287-6.319 8.74.079 7.263.217 14.27-.216 21.534-.217 3.622-.355 8.09.413 9.94.807 1.969 6.496 8.74 11.81 9.586 11.082 1.772 22.145.236 33.306.768 4.153.197 13.778-.295 15.097-1.634 1.535-1.555 1.83-12.145 1.595-16.948-.374-7.873 1.948-23.6-7.028-26.967a12.758 12.758 0 0 0-2.047-.59c1.437 1.574 3.327 2.854 4.291 4.783-7.913-2.894-22.951-2.579-33.62-2.027-2.992.157-6.673.373-9.625.688 14.192.158 24.034.59 36.021 1.477 9.272.669 10.374 4.684 10.63 14.133.157 6.279-.118 21.593-1.752 23.365-2.047 2.204-17.676 1.436-24.841 1.476-5.827.04-12.283-.217-19.842-.787 0 0-2.244.157-3.897-.945-.394-6.949-.807-12.657-1.162-18.7-.216-3.622-.767-16.318.71-17.558.885-.748 3.995-.689 8.503-.689-2.54-.846-5.984-1.083-7.795-1.319-1.83-1.771-4.98-4.429-7.401-6.063 2.086 2.343 5.078 4.508 5.964 6.791-1.791 1.437-1.22 10-1.378 13.484-.236 5.197.768 10.728.984 15.944.079 1.89-.374 5.256-.984 6.89-1.83-1.615-4.075-3.524-5.531-5.158-.984-1.082-.67-1.988-.748-3.78-.177-4.212-.079-10.786-.02-14.683.06-4.469-1.26-19.822 3.425-20.157 2.559-.177 4.783-.689 7.697-.531.157.04 1.594-.02 2.184 0-.039-.61.237-1.536.158-2.047l-8.563.964-.02.02Z" fill="#F37715"/><path d="M10.774 16.473c-5.512-.197-6.358 3.287-6.319 8.74.079 7.263.217 14.27-.216 21.534-.217 3.622-.355 8.09.413 9.94.807 1.969 6.496 8.74 11.81 9.586 11.082 1.772 22.145.236 33.306.768 4.153.197 13.778-.295 15.097-1.634 1.535-1.555 1.83-12.145 1.595-16.948-.374-7.873 1.948-23.6-7.028-26.967a12.758 12.758 0 0 0-2.047-.59c1.437 1.574 3.327 2.854 4.291 4.783-7.913-2.894-22.951-2.579-33.62-2.027-2.992.157-6.673.373-9.625.688 14.192.158 24.034.59 36.021 1.477 9.272.669 10.374 4.684 10.63 14.133.157 6.279-.118 21.593-1.752 23.365-2.047 2.204-17.676 1.436-24.841 1.476-5.827.04-12.283-.217-19.842-.787 0 0-2.244.157-3.897-.945-.394-6.949-.807-12.657-1.162-18.7-.216-3.622-.767-16.318.71-17.558.885-.748 3.995-.689 8.503-.689-2.54-.846-5.984-1.083-7.795-1.319-1.83-1.771-4.98-4.429-7.401-6.063 2.086 2.343 5.078 4.508 5.964 6.791-1.791 1.437-1.22 10-1.378 13.484-.236 5.197.768 10.728.984 15.944.079 1.89-.374 5.256-.984 6.89-1.83-1.615-4.075-3.524-5.531-5.158-.984-1.082-.67-1.988-.748-3.78-.177-4.212-.079-10.786-.02-14.683.06-4.469-1.26-19.822 3.425-20.157 2.559-.177 4.783-.689 7.697-.531.157.04 1.594-.02 2.184 0-.039-.61.237-1.536.158-2.047l-8.563.964-.02.02Z" fill="url(#b)"/><path d="M29.374 19.8c-.846.236-1.456.295-2.322.452.137-1.555-.099-3.07-.04-4.625.04-1.3.552-2.658.06-3.937-.827-2.087-3.386-1.693-5.118-1.496-1.516.157-2.677.531-2.894 2.244-.295 2.44-.433 5.196-.197 7.637-1.18.197-2.598-.334-3.72-.709 3.76 3.78 7.972 4.469 13.365 2.048 1.004-.453 2.047-.985 2.736-1.949-.59.079-1.338.197-1.89.354l.02-.02Zm-3.444-4.134c.02 1.083.334 3.563-.394 4.41-.846.983-2.854 1.279-3.976.944-.433-.118-.846-.335-1.26-.532l-.59-.452c-.178-2.087-.06-4.252.255-6.319.119-.787.158-1.81.788-2.263 1.004-.729 4.114-.985 5.02.039.983 1.122.413 2.815-.768 3.307-.965.393-3.701.807-4.37-.354 1.102 2.185 3.484 1.653 5.314 1.26l-.02-.04Z" fill="#F37715"/><path d="M29.374 19.8c-.846.236-1.456.295-2.322.452.137-1.555-.099-3.07-.04-4.625.04-1.3.552-2.658.06-3.937-.827-2.087-3.386-1.693-5.118-1.496-1.516.157-2.677.531-2.894 2.244-.295 2.44-.433 5.196-.197 7.637-1.18.197-2.598-.334-3.72-.709 3.76 3.78 7.972 4.469 13.365 2.048 1.004-.453 2.047-.985 2.736-1.949-.59.079-1.338.197-1.89.354l.02-.02Zm-3.444-4.134c.02 1.083.334 3.563-.394 4.41-.846.983-2.854 1.279-3.976.944-.433-.118-.846-.335-1.26-.532l-.59-.452c-.178-2.087-.06-4.252.255-6.319.119-.787.158-1.81.788-2.263 1.004-.729 4.114-.985 5.02.039.983 1.122.413 2.815-.768 3.307-.965.393-3.701.807-4.37-.354 1.102 2.185 3.484 1.653 5.314 1.26l-.02-.04Z" fill="url(#c)"/><path d="M56.951 19.17c-.236-2.068.118-4.41-.138-6.497-.275-2.224-2.204-2.716-4.192-2.736-1.87 0-4.547.335-4.646 2.677-.118 2.54-.039 5.138-.039 7.697 0 .138-2.303-.63-3.445-1.004a33.601 33.601 0 0 1-.61-.197c.295.492.709.984 1.142 1.358 1.319 1.142 3.11 1.595 4.803 1.83.984.139 1.968.237 2.972.237.945 0 1.791-.059 2.697-.157.807-.08 1.771.197 2.44-.453-1.004-.295-.787-.788-1.004-2.736l.02-.02Zm-.827.53c0 1.398-.885 1.95-2.204 2.028-1.3.079-3.13-.059-4.272-.768-1.003-.63-.59-2.795-.669-3.956-.059-.984-.216-2.087-.059-3.051l-.04-1.595c.749-1.83 4.252-1.85 5.71-.964 2.164 1.3-1.674 2.382-2.5 2.303-.788-.079-1.95-.335-2.58-1.142-.137 1.359 1.97 2.146 3.012 2.225 1.181.078 2.5.059 3.622-.276.06 1.732-.04 3.464 0 5.197h-.02Z" fill="#F37715"/><path d="M56.951 19.17c-.236-2.068.118-4.41-.138-6.497-.275-2.224-2.204-2.716-4.192-2.736-1.87 0-4.547.335-4.646 2.677-.118 2.54-.039 5.138-.039 7.697 0 .138-2.303-.63-3.445-1.004a33.601 33.601 0 0 1-.61-.197c.295.492.709.984 1.142 1.358 1.319 1.142 3.11 1.595 4.803 1.83.984.139 1.968.237 2.972.237.945 0 1.791-.059 2.697-.157.807-.08 1.771.197 2.44-.453-1.004-.295-.787-.788-1.004-2.736l.02-.02Zm-.827.53c0 1.398-.885 1.95-2.204 2.028-1.3.079-3.13-.059-4.272-.768-1.003-.63-.59-2.795-.669-3.956-.059-.984-.216-2.087-.059-3.051l-.04-1.595c.749-1.83 4.252-1.85 5.71-.964 2.164 1.3-1.674 2.382-2.5 2.303-.788-.079-1.95-.335-2.58-1.142-.137 1.359 1.97 2.146 3.012 2.225 1.181.078 2.5.059 3.622-.276.06 1.732-.04 3.464 0 5.197h-.02Z" fill="url(#d)"/><path d="M37.19 14.405c2.028.237 4.075.296 6.122.394.512.02 1.161-.079 1.673.04 1.28.295 2.756 1.673 3.878 2.361a4.537 4.537 0 0 0-.197 1.359c-1.378-.65-2.54-1.772-3.878-2.402-1.28-.59-2.933-.177-4.271-.236-3.544-.177-7.047-.433-10.61-.453-.905 0-1.772.04-2.657.158 1.063-1.339 2.854-1.024 4.35-1.063 1.91-.04 3.641-.394 5.531-.177h.02l.039.02Z" fill="#F37715"/><path d="M37.19 14.405c2.028.237 4.075.296 6.122.394.512.02 1.161-.079 1.673.04 1.28.295 2.756 1.673 3.878 2.361a4.537 4.537 0 0 0-.197 1.359c-1.378-.65-2.54-1.772-3.878-2.402-1.28-.59-2.933-.177-4.271-.236-3.544-.177-7.047-.433-10.61-.453-.905 0-1.772.04-2.657.158 1.063-1.339 2.854-1.024 4.35-1.063 1.91-.04 3.641-.394 5.531-.177h.02l.039.02Z" fill="url(#e)"/><path d="M6.444 51.412c.02.433 3.996 2.834 4.488 3.248 1.653 1.338 3.405 2.381 5.413 2.893 10.944 2.736 22.774 1.614 33.935 1.516 5.236-.04 7.066-.374 10.708-.866 1.083-.138 2.303-.768 3.386-.709-3.642 2.323-8.681 2.421-12.775 2.579-5.472.216-10.925.65-16.358.807-2.736.078-5.472-.236-8.168-.433-3.13-.236-6.2.118-9.33-.61-3.268-.768-6.437-2.678-8.82-5.237-.845-.905-1.593-2.106-2.519-2.913 0 0 .06-.216.06-.256l-.02-.02Z" fill="#F37715"/><path d="M6.444 51.412c.02.433 3.996 2.834 4.488 3.248 1.653 1.338 3.405 2.381 5.413 2.893 10.944 2.736 22.774 1.614 33.935 1.516 5.236-.04 7.066-.374 10.708-.866 1.083-.138 2.303-.768 3.386-.709-3.642 2.323-8.681 2.421-12.775 2.579-5.472.216-10.925.65-16.358.807-2.736.078-5.472-.236-8.168-.433-3.13-.236-6.2.118-9.33-.61-3.268-.768-6.437-2.678-8.82-5.237-.845-.905-1.593-2.106-2.519-2.913 0 0 .06-.216.06-.256l-.02-.02Z" fill="url(#f)"/><path d="M2.604 26.531c-.728 5.118-.669 10.177-1.023 16.653-1.91-4.095-1.024-13.7 1.142-17.795l-.138 1.162.02-.02Z" fill="#F37715"/><path d="M2.604 26.531c-.728 5.118-.669 10.177-1.023 16.653-1.91-4.095-1.024-13.7 1.142-17.795l-.138 1.162.02-.02Z" fill="url(#g)"/><path d="M68.428 41.727c.08 7.283.296 13.975-1.004 20.924 3.977-5.098 2.874-13.582 1.87-19.546-.216-1.26-.374-2.5-.866-3.681v2.303Z" fill="#F37715"/><path d="M68.428 41.727c.08 7.283.296 13.975-1.004 20.924 3.977-5.098 2.874-13.582 1.87-19.546-.216-1.26-.374-2.5-.866-3.681v2.303Z" fill="url(#h)"/><g opacity=".6"><path d="M34.846 37.397c-.945 1.26-2.46 2.578-3.11 4.055 2.638.511 5.177 1.456 6.83 1.673-.905 2.066-2.401 4.507-3.169 6.633-.275.748-2.637 4.665-2.637 4.665s10.353-8.09 11.574-9.192c1.496-1.358 3.188-2.48 4.665-3.898-.67-.846-5.827-2.263-6.91-2.42 1.694-1.064 6.811-3.327 6.95-5.827.097-1.811-3.426-2.402-4.745-2.815-2.48-.787-2.874-.236-4.724 1.653-1.673 1.713-3.307 3.504-4.744 5.453l.02.02Z" fill="#F37715"/><path d="M34.846 37.397c-.945 1.26-2.46 2.578-3.11 4.055 2.638.511 5.177 1.456 6.83 1.673-.905 2.066-2.401 4.507-3.169 6.633-.275.748-2.637 4.665-2.637 4.665s10.353-8.09 11.574-9.192c1.496-1.358 3.188-2.48 4.665-3.898-.67-.846-5.827-2.263-6.91-2.42 1.694-1.064 6.811-3.327 6.95-5.827.097-1.811-3.426-2.402-4.745-2.815-2.48-.787-2.874-.236-4.724 1.653-1.673 1.713-3.307 3.504-4.744 5.453l.02.02Z" fill="url(#i)"/></g><g opacity=".6"><path d="M59.117 12.28c1.162-.768 2.56-1.83 3.937-2.067-.118.57-.217 1.122-.295 1.673 1.89-.945 4.507-1.082 6.535-.374-2.284.906-5.138 1.535-7.165 2.913-.197-2.5-2.264-1.063-4.016-.748l1.004-1.397Z" fill="#F37715"/><path d="M59.117 12.28c1.162-.768 2.56-1.83 3.937-2.067-.118.57-.217 1.122-.295 1.673 1.89-.945 4.507-1.082 6.535-.374-2.284.906-5.138 1.535-7.165 2.913-.197-2.5-2.264-1.063-4.016-.748l1.004-1.397Z" fill="url(#j)"/></g><g opacity=".6"><path d="M53.783 7.792c.57-1.89.314-3.976 1.456-5.65.453.552.925 1.438 1.024 2.245 1.319-1.201 2.834-1.988 4.527-2.54-1.122 1.95-3.7 3.11-4.41 5.315-.334-.433-.629-1.023-.885-1.456-.709.984-1.299 2.125-1.87 3.169l.158-1.083Z" fill="#F37715"/><path d="M53.783 7.792c.57-1.89.314-3.976 1.456-5.65.453.552.925 1.438 1.024 2.245 1.319-1.201 2.834-1.988 4.527-2.54-1.122 1.95-3.7 3.11-4.41 5.315-.334-.433-.629-1.023-.885-1.456-.709.984-1.299 2.125-1.87 3.169l.158-1.083Z" fill="url(#k)"/></g><g opacity=".6"><path d="M48.252 9.091c-1.043-1.515-1.93-4.192-2.559-5.294-.06.905-.551 2.519-.709 3.385-1.968-1.358-3.484-2.244-6.003-2.204 2.165 1.712 5.02 2.637 6.771 5 .335-.591.63-1.201.65-1.87 0-.06 0-.06 0 0-.04.688 1.988 1.79 2.46 2.007-.098-.276-.315-.63-.59-1.024h-.02Z" fill="#F37715"/><path d="M48.252 9.091c-1.043-1.515-1.93-4.192-2.559-5.294-.06.905-.551 2.519-.709 3.385-1.968-1.358-3.484-2.244-6.003-2.204 2.165 1.712 5.02 2.637 6.771 5 .335-.591.63-1.201.65-1.87 0-.06 0-.06 0 0-.04.688 1.988 1.79 2.46 2.007-.098-.276-.315-.63-.59-1.024h-.02Z" fill="url(#l)"/></g><g opacity=".6"><path d="M27.781 9.19c.866-1.162 2.323-2.245 3.72-2.619-.02.473-.059.945-.118 1.418 1.339-.453 3.642-.886 4.882-.138a65.028 65.028 0 0 0-5.413 2.224c-.335-.334-.61-.708-.729-1.161a10.94 10.94 0 0 0-2.873.905l.531-.65v.02Z" fill="#F37715"/><path d="M27.781 9.19c.866-1.162 2.323-2.245 3.72-2.619-.02.473-.059.945-.118 1.418 1.339-.453 3.642-.886 4.882-.138a65.028 65.028 0 0 0-5.413 2.224c-.335-.334-.61-.708-.729-1.161a10.94 10.94 0 0 0-2.873.905l.531-.65v.02Z" fill="url(#m)"/></g><g opacity=".6"><path d="M22.23 7.438c-.689-.788-1.673-3.7-1.457-4.705 1.044.04 1.989.512 2.756 1.201.217-1.24.65-2.775 1.752-3.445.197 1.792-.59 4.154-.807 6.004-.886-.138-1.319-.846-1.89-1.417-.039 1.18.473 2.263.158 3.385l-.512-1.023Z" fill="#F37715"/><path d="M22.23 7.438c-.689-.788-1.673-3.7-1.457-4.705 1.044.04 1.989.512 2.756 1.201.217-1.24.65-2.775 1.752-3.445.197 1.792-.59 4.154-.807 6.004-.886-.138-1.319-.846-1.89-1.417-.039 1.18.473 2.263.158 3.385l-.512-1.023Z" fill="url(#n)"/></g><g opacity=".6"><path d="M14.789 6.453c-.099.807-.08 1.063-.414 1.83-.807-.413-4.074-.806-6.043 0 1.32.69 3.15.532 4.606 1.123.886.354 2.185 1.496 2.973 1.948.452-1.653.118-2.047.118-2.047s2.047.63 3.05 1.103c0 0-2.125-3.11-4.29-3.957Z" fill="#F37715"/><path d="M14.789 6.453c-.099.807-.08 1.063-.414 1.83-.807-.413-4.074-.806-6.043 0 1.32.69 3.15.532 4.606 1.123.886.354 2.185 1.496 2.973 1.948.452-1.653.118-2.047.118-2.047s2.047.63 3.05 1.103c0 0-2.125-3.11-4.29-3.957Z" fill="url(#o)"/></g><path d="M68.802 30.764c-.119-.709-1.201-.414-1.063.295.314 1.771.433 3.563.531 5.373.04.71 1.161.71 1.122 0-.118-1.89-.236-3.798-.57-5.668h-.02Z" fill="#F37715"/><path d="M68.802 30.764c-.119-.709-1.201-.414-1.063.295.314 1.771.433 3.563.531 5.373.04.71 1.161.71 1.122 0-.118-1.89-.236-3.798-.57-5.668h-.02Z" fill="url(#p)"/><path d="M67.975 27.771c-.138-.275-.512-.335-.768-.197-.275.158-.335.492-.197.768.079.158.138.315.138.492.04.709 1.142.709 1.122 0 0-.374-.138-.709-.295-1.043v-.02Z" fill="#F37715"/><path d="M67.975 27.771c-.138-.275-.512-.335-.768-.197-.275.158-.335.492-.197.768.079.158.138.315.138.492.04.709 1.142.709 1.122 0 0-.374-.138-.709-.295-1.043v-.02Z" fill="url(#q)"/><path d="M1.739 45.92c0-.709-1.122-.709-1.122 0 0 1.3.098 2.579.216 3.858.06.709 1.181.709 1.122 0-.118-1.28-.216-2.578-.216-3.858Z" fill="#F37715"/><path d="M1.739 45.92c0-.709-1.122-.709-1.122 0 0 1.3.098 2.579.216 3.858.06.709 1.181.709 1.122 0-.118-1.28-.216-2.578-.216-3.858Z" fill="url(#r)"/><path d="M2.664 52.022s-.04-.059-.04-.157c0-.709-1.121-.709-1.121 0 0 .255.04.511.177.728.177.236.472.374.768.197.236-.138.393-.512.196-.768h.02Z" fill="#F37715"/><path d="M2.664 52.022s-.04-.059-.04-.157c0-.709-1.121-.709-1.121 0 0 .255.04.511.177.728.177.236.472.374.768.197.236-.138.393-.512.196-.768h.02Z" fill="url(#s)"/><path d="M66.578 64.502c-.217.334-.413.689-.69.984-.491.512.296 1.299.788.787.355-.354.59-.807.866-1.22.394-.61-.57-1.162-.964-.571v.02Z" fill="#F37715"/><path d="M66.578 64.502c-.217.334-.413.689-.69.984-.491.512.296 1.299.788.787.355-.354.59-.807.866-1.22.394-.61-.57-1.162-.964-.571v.02Z" fill="url(#t)"/><defs><linearGradient id="a" x1="14.249" y1="45.529" x2="71.848" y2="45.529" gradientUnits="userSpaceOnUse"><stop stop-color="#FF5825"/><stop offset="1" stop-color="#FF2A28"/></linearGradient><linearGradient id="b" x1="4.069" y1="41.322" x2="75.635" y2="41.322" gradientUnits="userSpaceOnUse"><stop stop-color="#FF5825"/><stop offset="1" stop-color="#FF2A28"/></linearGradient><linearGradient id="c" x1="15.143" y1="16.429" x2="33.591" y2="16.429" gradientUnits="userSpaceOnUse"><stop stop-color="#FF5825"/><stop offset="1" stop-color="#FF2A28"/></linearGradient><linearGradient id="d" x1="43.881" y1="16.236" x2="59.984" y2="16.236" gradientUnits="userSpaceOnUse"><stop stop-color="#FF5825"/><stop offset="1" stop-color="#FF2A28"/></linearGradient><linearGradient id="e" x1="27.25" y1="16.437" x2="52.013" y2="16.437" gradientUnits="userSpaceOnUse"><stop stop-color="#FF5825"/><stop offset="1" stop-color="#FF2A28"/></linearGradient><linearGradient id="f" x1="6.404" y1="56.152" x2="72.822" y2="56.152" gradientUnits="userSpaceOnUse"><stop stop-color="#FF5825"/><stop offset="1" stop-color="#FF2A28"/></linearGradient><linearGradient id="g" x1=".532" y1="34.286" x2="3.042" y2="34.286" gradientUnits="userSpaceOnUse"><stop stop-color="#FF5825"/><stop offset="1" stop-color="#FF2A28"/></linearGradient><linearGradient id="h" x1="67.424" y1="51.037" x2="70.648" y2="51.037" gradientUnits="userSpaceOnUse"><stop stop-color="#FF5825"/><stop offset="1" stop-color="#FF2A28"/></linearGradient><linearGradient id="i" x1="31.736" y1="42.173" x2="51.562" y2="42.173" gradientUnits="userSpaceOnUse"><stop stop-color="#FF5825"/><stop offset="1" stop-color="#FF2A28"/></linearGradient><linearGradient id="j" x1="58.113" y1="12.319" x2="70.923" y2="12.319" gradientUnits="userSpaceOnUse"><stop stop-color="#FF5825"/><stop offset="1" stop-color="#FF2A28"/></linearGradient><linearGradient id="k" x1="53.625" y1="5.361" x2="61.834" y2="5.361" gradientUnits="userSpaceOnUse"><stop stop-color="#FF5825"/><stop offset="1" stop-color="#FF2A28"/></linearGradient><linearGradient id="l" x1="38.981" y1="6.956" x2="50.302" y2="6.956" gradientUnits="userSpaceOnUse"><stop stop-color="#FF5825"/><stop offset="1" stop-color="#FF2A28"/></linearGradient><linearGradient id="m" x1="27.25" y1="8.323" x2="37.579" y2="8.323" gradientUnits="userSpaceOnUse"><stop stop-color="#FF5825"/><stop offset="1" stop-color="#FF2A28"/></linearGradient><linearGradient id="n" x1="20.743" y1="4.475" x2="25.978" y2="4.475" gradientUnits="userSpaceOnUse"><stop stop-color="#FF5825"/><stop offset="1" stop-color="#FF2A28"/></linearGradient><linearGradient id="o" x1="8.332" y1="8.904" x2="20.646" y2="8.904" gradientUnits="userSpaceOnUse"><stop stop-color="#FF5825"/><stop offset="1" stop-color="#FF2A28"/></linearGradient><linearGradient id="p" x1="67.727" y1="33.661" x2="69.636" y2="33.661" gradientUnits="userSpaceOnUse"><stop stop-color="#FF5825"/><stop offset="1" stop-color="#FF2A28"/></linearGradient><linearGradient id="q" x1="66.939" y1="28.434" x2="68.464" y2="28.434" gradientUnits="userSpaceOnUse"><stop stop-color="#FF5825"/><stop offset="1" stop-color="#FF2A28"/></linearGradient><linearGradient id="r" x1=".617" y1="47.849" x2="2.153" y2="47.849" gradientUnits="userSpaceOnUse"><stop stop-color="#FF5825"/><stop offset="1" stop-color="#FF2A28"/></linearGradient><linearGradient id="s" x1="1.503" y1="52.102" x2="2.913" y2="52.102" gradientUnits="userSpaceOnUse"><stop stop-color="#FF5825"/><stop offset="1" stop-color="#FF2A28"/></linearGradient><linearGradient id="t" x1="65.733" y1="65.334" x2="67.912" y2="65.334" gradientUnits="userSpaceOnUse"><stop stop-color="#FF5825"/><stop offset="1" stop-color="#FF2A28"/></linearGradient></defs></svg>