<svg width="15" height="16" viewBox="0 0 15 16" fill="none" xmlns="http://www.w3.org/2000/svg"><rect y=".5" width="15" height="15" rx="7.5" fill="url(#a)"/><g filter="url(#b)"><path d="M10.5 9.711c0 .408-.064.781-.192 1.12a2.379 2.379 0 0 1-.583.883 2.664 2.664 0 0 1-.98.577c-.397.14-.91.209-1.543.209H5.02a.544.544 0 0 1-.378-.132c-.094-.093-.141-.248-.141-.466V4.077c0-.204.047-.35.14-.438A.503.503 0 0 1 5 3.5h4.687c.042 0 .079.012.109.035a.244.244 0 0 1 .083.125c.025.056.043.13.051.223.013.088.02.201.02.34 0 .13-.007.241-.02.334a.76.76 0 0 1-.051.223.292.292 0 0 1-.083.125.163.163 0 0 1-.103.035H6.184v2.24h1.377c.533 0 .973.055 1.319.166.346.111.638.276.877.494.24.218.423.485.55.8.129.315.193.672.193 1.071Zm-1.71.118c0-.2-.03-.378-.09-.535a1.08 1.08 0 0 0-.71-.675c-.18-.06-.42-.09-.724-.09H6.184v2.594h1.101c.274 0 .498-.028.673-.084.18-.055.329-.139.448-.25.12-.111.214-.248.282-.41.068-.163.102-.346.102-.55Z" fill="#fff"/></g><defs><linearGradient id="a" x1="0" y1=".5" x2="15" y2="15.5" gradientUnits="userSpaceOnUse"><stop stop-color="#99E35F"/><stop offset=".973" stop-color="#30D0DA"/></linearGradient><filter id="b" x="4.222" y="3.222" width="7.111" height="10.111" filterUnits="userSpaceOnUse" color-interpolation-filters="sRGB"><feFlood flood-opacity="0" result="BackgroundImageFix"/><feColorMatrix in="SourceAlpha" values="0 0 0 0 0 0 0 0 0 0 0 0 0 0 0 0 0 0 127 0" result="hardAlpha"/><feOffset dx=".278" dy=".278"/><feGaussianBlur stdDeviation=".278"/><feComposite in2="hardAlpha" operator="out"/><feColorMatrix values="0 0 0 0 0.162617 0 0 0 0 0.4 0 0 0 0 0.323365 0 0 0 0.4 0"/><feBlend in2="BackgroundImageFix" result="effect1_dropShadow_720_661"/><feBlend in="SourceGraphic" in2="effect1_dropShadow_720_661" result="shape"/></filter></defs></svg>