<svg width="26" height="37" viewBox="0 0 26 37" fill="none" xmlns="http://www.w3.org/2000/svg"><path d="M4.427 30.92h17.145v5.306H4.427v-5.307ZM15.167 23.618a3.508 3.508 0 0 1-.024-.407v-3.233a7.168 7.168 0 0 0 3.363-2.252h.014a6.15 6.15 0 0 0 3.826-1.33 6.046 6.046 0 0 0 2.27-4.013L26 1.323l-2.127-.261-.265 2.122h-2.16L21.846 0H4.153l.399 3.184h-2.16l-.265-2.122L0 1.323l1.384 11.06a6.045 6.045 0 0 0 2.27 4.014 6.15 6.15 0 0 0 3.826 1.33h.013a7.167 7.167 0 0 0 3.364 2.25v3.234c0 .137-.008.272-.024.407.708.13 1.43.226 2.167.226.737 0 1.459-.095 2.167-.226Zm8.175-18.311-.853 6.815a3.939 3.939 0 0 1-1.479 2.615c-.37.292-.78.513-1.215.659.133-.413.23-.843.285-1.287l1.102-8.803h2.16ZM4.99 14.736a3.94 3.94 0 0 1-1.479-2.615l-.853-6.816h2.16L5.92 14.11c.055.444.152.874.285 1.287a4.018 4.018 0 0 1-1.215-.659ZM16.284 25.56c-1.01.214-2.115.407-3.285.407s-2.274-.193-3.285-.406c-.634.515-1.652 1.573-1.972 3.236h10.514c-.32-1.663-1.338-2.721-1.972-3.236Z" fill="#fff"/></svg>