<svg width="24" height="24" viewBox="0 0 24 24" fill="none" xmlns="http://www.w3.org/2000/svg"><path d="M9 22h6c5 0 7-2 7-7V9c0-5-2-7-7-7H9C4 2 2 4 2 9v6c0 5 2 7 7 7Z" stroke="url(#a)" stroke-width="1.5" stroke-linecap="round" stroke-linejoin="round"/><path d="m9 11.51 3 3 3-3" stroke="#F37715" stroke-width="1.5" stroke-linecap="round" stroke-linejoin="round"/><path d="m9 11.51 3 3 3-3" stroke="url(#b)" stroke-width="1.5" stroke-linecap="round" stroke-linejoin="round"/><path d="M12 14.51v-8" stroke="#F37715" stroke-width="1.5" stroke-linecap="round" stroke-linejoin="round"/><path d="M12 14.51v-8" stroke="url(#c)" stroke-width="1.5" stroke-linecap="round" stroke-linejoin="round"/><path d="M6 16.51c3.89 1.3 8.11 1.3 12 0" stroke="#F37715" stroke-width="1.5" stroke-linecap="round" stroke-linejoin="round"/><path d="M6 16.51c3.89 1.3 8.11 1.3 12 0" stroke="url(#d)" stroke-width="1.5" stroke-linecap="round" stroke-linejoin="round"/><defs><linearGradient id="a" x1="12" y1="2" x2="12" y2="22" gradientUnits="userSpaceOnUse"><stop stop-color="#FF5525"/><stop offset="1" stop-color="#FF3327"/></linearGradient><linearGradient id="b" x1="12" y1="11.51" x2="12" y2="14.51" gradientUnits="userSpaceOnUse"><stop stop-color="#FF5525"/><stop offset="1" stop-color="#FF3327"/></linearGradient><linearGradient id="c" x1="12.5" y1="6.51" x2="12.5" y2="14.51" gradientUnits="userSpaceOnUse"><stop stop-color="#FF5525"/><stop offset="1" stop-color="#FF3327"/></linearGradient><linearGradient id="d" x1="12" y1="16.51" x2="12" y2="17.485" gradientUnits="userSpaceOnUse"><stop stop-color="#FF5525"/><stop offset="1" stop-color="#FF3327"/></linearGradient></defs></svg>