<svg width="72" height="67" viewBox="0 0 72 67" fill="none" xmlns="http://www.w3.org/2000/svg"><g opacity=".6"><path d="M41.073 39.214c1.089-2.682 1.788-4.412 3.168-6.57.33-.524 2.352-2.099 1.594-2.526-.894-.486-4.14 1.71-4.898 2.157-1.088.622-1.924 1.555-2.877 2.372.778 1.321 1.108 2.468 2.12 3.595l.893.992v-.02Z" fill="#F37715"/><path d="M41.073 39.214c1.089-2.682 1.788-4.412 3.168-6.57.33-.524 2.352-2.099 1.594-2.526-.894-.486-4.14 1.71-4.898 2.157-1.088.622-1.924 1.555-2.877 2.372.778 1.321 1.108 2.468 2.12 3.595l.893.992v-.02Z" fill="url(#a)"/></g><path d="M2.9 19.233C8.42 13.674 14.29 8.038 21.56 4.85c3.712-1.633 6.978-2.818 10.632-.505 5.17 3.265 8.532 7.794 12.109 12.517 2.099 2.78 4.84 5.967 5.17 9.602C45.603 19.35 33.747 6.23 29.743 4.753c-1.73-.642-4.724.039-6.726 1.03-4.431 2.157-6.939 3.518-10.768 6.57-2.546 2.02-6.025 5.267-7.502 8.24l-1.866-1.34.02-.02Z" fill="#F37715"/><path d="M2.9 19.233C8.42 13.674 14.29 8.038 21.56 4.85c3.712-1.633 6.978-2.818 10.632-.505 5.17 3.265 8.532 7.794 12.109 12.517 2.099 2.78 4.84 5.967 5.17 9.602C45.603 19.35 33.747 6.23 29.743 4.753c-1.73-.642-4.724.039-6.726 1.03-4.431 2.157-6.939 3.518-10.768 6.57-2.546 2.02-6.025 5.267-7.502 8.24l-1.866-1.34.02-.02Z" fill="url(#b)"/><path d="M22.686 44.307c4.956-5.442 12.09-11.934 18.718-15.22 1.263-.621 5.928-3.031 7.463-2.351 1.886.855-.136 3.79-.777 4.918-1.322 2.37-5.19 9.368-4.043 12.38.816 2.12 9.757-4.178 12.4-5.597 6.551-3.538 11.527-4.762 14.85-2.877-7.677.253-10.01 1.341-18.99 6.959-2.72 1.71-10.145 6.278-10.262.641-.097-4.645 3.751-9.932 5.734-13.78 1.01-1.944-.991-1.245-2.857-.564-3.44 1.244-7.036 3.673-9.855 5.967-3.907 3.188-8.183 6.939-11.779 10.457l-.602-.914v-.02Z" fill="#F37715"/><path d="M22.686 44.307c4.956-5.442 12.09-11.934 18.718-15.22 1.263-.621 5.928-3.031 7.463-2.351 1.886.855-.136 3.79-.777 4.918-1.322 2.37-5.19 9.368-4.043 12.38.816 2.12 9.757-4.178 12.4-5.597 6.551-3.538 11.527-4.762 14.85-2.877-7.677.253-10.01 1.341-18.99 6.959-2.72 1.71-10.145 6.278-10.262.641-.097-4.645 3.751-9.932 5.734-13.78 1.01-1.944-.991-1.245-2.857-.564-3.44 1.244-7.036 3.673-9.855 5.967-3.907 3.188-8.183 6.939-11.779 10.457l-.602-.914v-.02Z" fill="url(#c)"/><path d="M41.54 13.752c4.529-2.896 11.76-7.036 16.19-2.06 4.14 4.645 6.979 10.535 9.797 16.035 1.166 2.294 2.78 4.724 2.954 7.348-1.73-1.691-2.643-3.752-3.537-5.987-1.458-3.557-3.149-6.336-5.015-9.64-2.507-4.452-5.578-10.244-11.643-8.495-2.507.72-5.675 2.216-7.444 4.238l-1.263-1.42-.04-.019Z" fill="#F37715"/><path d="M41.54 13.752c4.529-2.896 11.76-7.036 16.19-2.06 4.14 4.645 6.979 10.535 9.797 16.035 1.166 2.294 2.78 4.724 2.954 7.348-1.73-1.691-2.643-3.752-3.537-5.987-1.458-3.557-3.149-6.336-5.015-9.64-2.507-4.452-5.578-10.244-11.643-8.495-2.507.72-5.675 2.216-7.444 4.238l-1.263-1.42-.04-.019Z" fill="url(#d)"/><path d="M35.708 33.733c.875 1.555 3.479 5.404 4.179 6.317.991 1.283 2.021 2.372 3.09 3.577.486.544 1.808 1.457 1.827 2.235-1.749.66-4.198-2.721-4.976-3.907-1.205-1.846-2.41-3.751-3.615-5.598-.913-1.419-.525-2.604-.525-2.604l.02-.02Z" fill="#F37715"/><path d="M35.708 33.733c.875 1.555 3.479 5.404 4.179 6.317.991 1.283 2.021 2.372 3.09 3.577.486.544 1.808 1.457 1.827 2.235-1.749.66-4.198-2.721-4.976-3.907-1.205-1.846-2.41-3.751-3.615-5.598-.913-1.419-.525-2.604-.525-2.604l.02-.02Z" fill="url(#e)"/><path d="M1.753 17.095c-.875-.602-1.691.778-.778 1.205.914.428 8.028 7.114 17.61 21.4 9.582 14.286 16.133 24.355 17.104 25.696.992 1.341 2.469 1.613 3.596.641 1.128-.991 3.032-3.246 2.177-3.81-.855-.563-3.654-.427-5.073 1.905 0 0-11.468-17.26-16.327-24.296C15.202 32.8 8.09 21.47 1.752 17.096Z" fill="#F37715"/><path d="M1.753 17.095c-.875-.602-1.691.778-.778 1.205.914.428 8.028 7.114 17.61 21.4 9.582 14.286 16.133 24.355 17.104 25.696.992 1.341 2.469 1.613 3.596.641 1.128-.991 3.032-3.246 2.177-3.81-.855-.563-3.654-.427-5.073 1.905 0 0-11.468-17.26-16.327-24.296C15.202 32.8 8.09 21.47 1.752 17.096Z" fill="url(#f)"/><path d="M24.747 43.665s9.758 14.52 16.697 18.563l-2.255 1.263s-9.038-8.747-14.753-19.495l.311-.311v-.02Z" fill="#F37715"/><path d="M24.747 43.665s9.758 14.52 16.697 18.563l-2.255 1.263s-9.038-8.747-14.753-19.495l.311-.311v-.02Z" fill="url(#g)"/><path d="M11.918 12.1c1.866 2.955 4.1 5.676 6.258 8.416-.913 1.847-3.207 3.09-4.723 4.393-.913.797-1.75 1.613-2.682 2.371-2.274-1.613-3.538-4.315-5.715-6.103-.7-.583-1.302-.602-1.185-1.457.136-.914 1.71-1.983 2.352-2.644.7-.72 1.38-1.4 2.177-2.021l3.498-2.955h.02Z" fill="#F37715"/><path d="M11.918 12.1c1.866 2.955 4.1 5.676 6.258 8.416-.913 1.847-3.207 3.09-4.723 4.393-.913.797-1.75 1.613-2.682 2.371-2.274-1.613-3.538-4.315-5.715-6.103-.7-.583-1.302-.602-1.185-1.457.136-.914 1.71-1.983 2.352-2.644.7-.72 1.38-1.4 2.177-2.021l3.498-2.955h.02Z" fill="url(#h)"/><path d="M20.256 6.716c1.594 1.672 3.188 3.285 4.393 5.326.563.953 1.457 1.808 2.332 2.527 3.11-1.983 6.822-3.81 10.438-4.529-.467-1.127-2.06-1.905-2.896-2.838-.661-.738-1.283-1.535-2.08-2.138-1.769-1.321-3.81-1.69-5.928-1.224-1.128.252-2.294.505-3.324 1.05l-2.896 1.807-.039.02Z" fill="#F37715"/><path d="M20.256 6.716c1.594 1.672 3.188 3.285 4.393 5.326.563.953 1.457 1.808 2.332 2.527 3.11-1.983 6.822-3.81 10.438-4.529-.467-1.127-2.06-1.905-2.896-2.838-.661-.738-1.283-1.535-2.08-2.138-1.769-1.321-3.81-1.69-5.928-1.224-1.128.252-2.294.505-3.324 1.05l-2.896 1.807-.039.02Z" fill="url(#i)"/><path d="M16.388 35.366c1.69-2.372 5.19-5.073 7.638-6.764 1.536 1.36 3.071 2.76 4.102 4.548.7 1.244 2.332 3.246 1.885 4.665-.506 1.613-2.546 3.09-3.79 4.12-.836.68-2.177 2.566-3.324 2.294-1.05-.253-1.963-2.43-2.566-3.227l-3.926-5.617-.02-.02Z" fill="#F37715"/><path d="M16.388 35.366c1.69-2.372 5.19-5.073 7.638-6.764 1.536 1.36 3.071 2.76 4.102 4.548.7 1.244 2.332 3.246 1.885 4.665-.506 1.613-2.546 3.09-3.79 4.12-.836.68-2.177 2.566-3.324 2.294-1.05-.253-1.963-2.43-2.566-3.227l-3.926-5.617-.02-.02Z" fill="url(#j)"/><path d="M39.965 30.117c-1.439-3.168-4.335-5.364-6.162-8.202 1.769-1.438 3.849-2.43 5.987-3.13.952-.31 2.565-1.088 3.576-.854 1.205.272 2.235 2.06 2.974 2.954.933 1.147 1.769 2.41 2.507 3.693.603 1.03.914 1.924.506 3.11-2.45-1.458-5.423.214-7.6 1.458l-1.808.971h.02Z" fill="#F37715"/><path d="M39.965 30.117c-1.439-3.168-4.335-5.364-6.162-8.202 1.769-1.438 3.849-2.43 5.987-3.13.952-.31 2.565-1.088 3.576-.854 1.205.272 2.235 2.06 2.974 2.954.933 1.147 1.769 2.41 2.507 3.693.603 1.03.914 1.924.506 3.11-2.45-1.458-5.423.214-7.6 1.458l-1.808.971h.02Z" fill="url(#k)"/><path d="M17.963 20.554c1.439-1.652 3.907-3.245 5.851-4.256.68-.35 2.877-2.352 3.343-1.827 1.322 1.535 4.12 4.256 5.326 5.792.544.68 1.244 1.03 1.71 1.75-2.857 2.079-5.695 4.372-8.746 6.122-1.166.68-1.205.894-2.177-.195-1.011-1.146-1.886-2.507-2.78-3.75-.524-.74-.972-1.536-1.574-2.217l-.972-1.4.02-.019Z" fill="#F37715"/><path d="M17.963 20.554c1.439-1.652 3.907-3.245 5.851-4.256.68-.35 2.877-2.352 3.343-1.827 1.322 1.535 4.12 4.256 5.326 5.792.544.68 1.244 1.03 1.71 1.75-2.857 2.079-5.695 4.372-8.746 6.122-1.166.68-1.205.894-2.177-.195-1.011-1.146-1.886-2.507-2.78-3.75-.524-.74-.972-1.536-1.574-2.217l-.972-1.4.02-.019Z" fill="url(#l)"/><path d="M60.684 17.037c-1.982-.214-7.152 1.555-8.493 3.149 2.157 2.293 4.392 5.131 5.442 8.163 2.663-.447 5.15-2.857 8.008-2.41-.486-2.04-1.322-3.499-2.313-5.073l-2.624-3.83h-.02Z" fill="#F37715"/><path d="M60.684 17.037c-1.982-.214-7.152 1.555-8.493 3.149 2.157 2.293 4.392 5.131 5.442 8.163 2.663-.447 5.15-2.857 8.008-2.41-.486-2.04-1.322-3.499-2.313-5.073l-2.624-3.83h-.02Z" fill="url(#m)"/><path d="M62.045 36.493c-1.671-2.39-2.934-5.598-4.431-8.163-2.585-.04-7.328 3.09-9.33 4.645 1.905 2.1 3.81 5.442 4.762 8.086 1.38-.039 2.858-1.36 4.063-2.022l4.936-2.546Z" fill="#F37715"/><path d="M62.045 36.493c-1.671-2.39-2.934-5.598-4.431-8.163-2.585-.04-7.328 3.09-9.33 4.645 1.905 2.1 3.81 5.442 4.762 8.086 1.38-.039 2.858-1.36 4.063-2.022l4.936-2.546Z" fill="url(#n)"/><path d="M46.768 12.061c1.828.875 3.363 3.732 4.315 5.52.39.74 1.128 1.828 1.342 2.644-1.322 1.069-3.324 1.75-4.801 2.643-.895-1.555-2.119-3.382-3.13-4.859-.427-.641-.758-1.4-1.224-2.002-.292-.37-.758-.603-.894-1.088-.33-1.05 1.768-1.77 2.643-2.352l1.75-.506Z" fill="#F37715"/><path d="M46.768 12.061c1.828.875 3.363 3.732 4.315 5.52.39.74 1.128 1.828 1.342 2.644-1.322 1.069-3.324 1.75-4.801 2.643-.895-1.555-2.119-3.382-3.13-4.859-.427-.641-.758-1.4-1.224-2.002-.292-.37-.758-.603-.894-1.088-.33-1.05 1.768-1.77 2.643-2.352l1.75-.506Z" fill="url(#o)"/><path d="M47.838 30.973c.214.525.583 1.011.836 1.536.097.194.155.389.252.564-.563.155-1.088.524-1.613.777-.35.155-.758.214-1.108.389l1.633-3.266Z" fill="#F37715"/><path d="M47.838 30.973c.214.525.583 1.011.836 1.536.097.194.155.389.252.564-.563.155-1.088.524-1.613.777-.35.155-.758.214-1.108.389l1.633-3.266Z" fill="url(#p)"/><path d="M18.391 3.703c-.7 0-.7 1.108 0 1.108s.7-1.108 0-1.108Z" fill="#F37715"/><path d="M18.391 3.703c-.7 0-.7 1.108 0 1.108s.7-1.108 0-1.108Z" fill="url(#q)"/><path d="M33.804 2.051c-4.879-2.799-9.174-1.38-14.053.7-.641.272-.097 1.224.564.952 4.431-1.885 8.416-3.285 12.945-.7.622.35 1.166-.602.563-.952h-.02Z" fill="#F37715"/><path d="M33.804 2.051c-4.879-2.799-9.174-1.38-14.053.7-.641.272-.097 1.224.564.952 4.431-1.885 8.416-3.285 12.945-.7.622.35 1.166-.602.563-.952h-.02Z" fill="url(#r)"/><path d="M36.04 3.529a2.677 2.677 0 0 0-.584-.467c-.622-.35-1.166.603-.564.953.136.078.234.175.35.291.506.506 1.283-.272.778-.777h.02Z" fill="#F37715"/><path d="M36.04 3.529a2.677 2.677 0 0 0-.584-.467c-.622-.35-1.166.603-.564.953.136.078.234.175.35.291.506.506 1.283-.272.778-.777h.02Z" fill="url(#s)"/><path d="M37.322 4.928c-.7 0-.7 1.089 0 1.089s.7-1.089 0-1.089Z" fill="#F37715"/><path d="M37.322 4.928c-.7 0-.7 1.089 0 1.089s.7-1.089 0-1.089Z" fill="url(#t)"/><path d="M50.48 45.046c-1.652.836-3.304 1.846-5.17 2.138-2.04.31-3.343-.467-4.723-1.847-.602-.602-1.03-.913-1.69-1.535.135.641.368 1.147.543 1.516.234.505.525.972.914 1.36a5.085 5.085 0 0 0 2.915 1.575c2.819.466 5.365-1.05 7.756-2.255.641-.33.078-1.263-.564-.952h.02Z" fill="#F37715"/><path d="M50.48 45.046c-1.652.836-3.304 1.846-5.17 2.138-2.04.31-3.343-.467-4.723-1.847-.602-.602-1.03-.913-1.69-1.535.135.641.368 1.147.543 1.516.234.505.525.972.914 1.36a5.085 5.085 0 0 0 2.915 1.575c2.819.466 5.365-1.05 7.756-2.255.641-.33.078-1.263-.564-.952h.02Z" fill="url(#u)"/><path d="M53.086 43.704a.563.563 0 0 1-.447.195c-.7.02-.72 1.127 0 1.108.486 0 .874-.175 1.224-.525.506-.486-.272-1.264-.777-.778Z" fill="#F37715"/><path d="M53.086 43.704a.563.563 0 0 1-.447.195c-.7.02-.72 1.127 0 1.108.486 0 .874-.175 1.224-.525.506-.486-.272-1.264-.777-.778Z" fill="url(#v)"/><path d="M56.078 42.013c-.719 0-.719 1.108 0 1.108.72 0 .7-1.108 0-1.108Z" fill="#F37715"/><path d="M56.078 42.013c-.719 0-.719 1.108 0 1.108.72 0 .7-1.108 0-1.108Z" fill="url(#w)"/><path d="M50.403 7.436c-.7 0-.7 1.088 0 1.088s.72-1.088 0-1.088Z" fill="#F37715"/><path d="M50.403 7.436c-.7 0-.7 1.088 0 1.088s.72-1.088 0-1.088Z" fill="url(#x)"/><path d="M57.303 8.31C56.078 7.28 54.6 6.87 53.007 6.968c-.7.04-.7 1.147 0 1.108 1.283-.077 2.508.175 3.518 1.03.545.447 1.322-.31.778-.777v-.02Z" fill="#F37715"/><path d="M57.303 8.31C56.078 7.28 54.6 6.87 53.007 6.968c-.7.04-.7 1.147 0 1.108 1.283-.077 2.508.175 3.518 1.03.545.447 1.322-.31.778-.777v-.02Z" fill="url(#y)"/><path d="M58.937 9.573c-.72 0-.72 1.108 0 1.108.719 0 .7-1.108 0-1.108Z" fill="#F37715"/><path d="M58.937 9.573c-.72 0-.72 1.108 0 1.108.719 0 .7-1.108 0-1.108Z" fill="url(#z)"/><path d="M10.868 30.779c-.428-.583-.894-1.166-1.341-1.73-1.205-1.497-2.547-2.877-4.082-4.024-.564-.427-1.127.525-.564.953 1.478 1.088 2.74 2.449 3.888 3.868.952 1.185 2.235 2.799 3.654 3.44-.311-.855-1.01-1.69-1.341-2.196-.078-.098-.136-.214-.214-.311Z" fill="#F37715"/><path d="M10.868 30.779c-.428-.583-.894-1.166-1.341-1.73-1.205-1.497-2.547-2.877-4.082-4.024-.564-.427-1.127.525-.564.953 1.478 1.088 2.74 2.449 3.888 3.868.952 1.185 2.235 2.799 3.654 3.44-.311-.855-1.01-1.69-1.341-2.196-.078-.098-.136-.214-.214-.311Z" fill="url(#A)"/><path d="M3.384 23.296c-.7 0-.7 1.107 0 1.107s.7-1.107 0-1.107Z" fill="#F37715"/><path d="M3.384 23.296c-.7 0-.7 1.107 0 1.107s.7-1.107 0-1.107Z" fill="url(#B)"/><path d="M33.667 65.337c-.7 0-.7 1.108 0 1.108s.72-1.108 0-1.108Z" fill="#F37715"/><path d="M33.667 65.337c-.7 0-.7 1.108 0 1.108s.72-1.108 0-1.108Z" fill="url(#C)"/><path d="M32.696 63.53c-2.294-2.896-5.21-7.989-7.678-10.71 1.555 3.576 4.626 8.65 6.9 11.487.447.564 1.206-.233.778-.777Z" fill="#F37715"/><path d="M32.696 63.53c-2.294-2.896-5.21-7.989-7.678-10.71 1.555 3.576 4.626 8.65 6.9 11.487.447.564 1.206-.233.778-.777Z" fill="url(#D)"/><defs><linearGradient id="a" x1="38.06" y1="34.641" x2="47.162" y2="34.641" gradientUnits="userSpaceOnUse"><stop stop-color="#FF5825"/><stop offset="1" stop-color="#FF2A28"/></linearGradient><linearGradient id="b" x1="2.881" y1="14.758" x2="56.261" y2="14.758" gradientUnits="userSpaceOnUse"><stop stop-color="#FF5825"/><stop offset="1" stop-color="#FF2A28"/></linearGradient><linearGradient id="c" x1="22.686" y1="36.253" x2="78.382" y2="36.253" gradientUnits="userSpaceOnUse"><stop stop-color="#FF5825"/><stop offset="1" stop-color="#FF2A28"/></linearGradient><linearGradient id="d" x1="41.54" y1="22.223" x2="74.699" y2="22.223" gradientUnits="userSpaceOnUse"><stop stop-color="#FF5825"/><stop offset="1" stop-color="#FF2A28"/></linearGradient><linearGradient id="e" x1="35.606" y1="39.84" x2="46.145" y2="39.84" gradientUnits="userSpaceOnUse"><stop stop-color="#FF5825"/><stop offset="1" stop-color="#FF2A28"/></linearGradient><linearGradient id="f" x1=".574" y1="41.782" x2="47.667" y2="41.782" gradientUnits="userSpaceOnUse"><stop stop-color="#FF5825"/><stop offset="1" stop-color="#FF2A28"/></linearGradient><linearGradient id="g" x1="24.436" y1="53.578" x2="43.922" y2="53.578" gradientUnits="userSpaceOnUse"><stop stop-color="#FF5825"/><stop offset="1" stop-color="#FF2A28"/></linearGradient><linearGradient id="h" x1="3.856" y1="19.69" x2="20.263" y2="19.69" gradientUnits="userSpaceOnUse"><stop stop-color="#FF5825"/><stop offset="1" stop-color="#FF2A28"/></linearGradient><linearGradient id="i" x1="20.256" y1="9.108" x2="39.92" y2="9.108" gradientUnits="userSpaceOnUse"><stop stop-color="#FF5825"/><stop offset="1" stop-color="#FF2A28"/></linearGradient><linearGradient id="j" x1="16.388" y1="36.428" x2="32.086" y2="36.428" gradientUnits="userSpaceOnUse"><stop stop-color="#FF5825"/><stop offset="1" stop-color="#FF2A28"/></linearGradient><linearGradient id="k" x1="33.803" y1="24.003" x2="51.831" y2="24.003" gradientUnits="userSpaceOnUse"><stop stop-color="#FF5825"/><stop offset="1" stop-color="#FF2A28"/></linearGradient><linearGradient id="l" x1="17.944" y1="21.542" x2="36.561" y2="21.542" gradientUnits="userSpaceOnUse"><stop stop-color="#FF5825"/><stop offset="1" stop-color="#FF2A28"/></linearGradient><linearGradient id="m" x1="52.191" y1="22.684" x2="67.601" y2="22.684" gradientUnits="userSpaceOnUse"><stop stop-color="#FF5825"/><stop offset="1" stop-color="#FF2A28"/></linearGradient><linearGradient id="n" x1="48.284" y1="34.695" x2="64.051" y2="34.695" gradientUnits="userSpaceOnUse"><stop stop-color="#FF5825"/><stop offset="1" stop-color="#FF2A28"/></linearGradient><linearGradient id="o" x1="42.341" y1="17.465" x2="53.894" y2="17.465" gradientUnits="userSpaceOnUse"><stop stop-color="#FF5825"/><stop offset="1" stop-color="#FF2A28"/></linearGradient><linearGradient id="p" x1="46.205" y1="32.606" x2="49.323" y2="32.606" gradientUnits="userSpaceOnUse"><stop stop-color="#FF5825"/><stop offset="1" stop-color="#FF2A28"/></linearGradient><linearGradient id="q" x1="17.866" y1="4.257" x2="19.069" y2="4.257" gradientUnits="userSpaceOnUse"><stop stop-color="#FF5825"/><stop offset="1" stop-color="#FF2A28"/></linearGradient><linearGradient id="r" x1="19.464" y1="2.121" x2="36.216" y2="2.121" gradientUnits="userSpaceOnUse"><stop stop-color="#FF5825"/><stop offset="1" stop-color="#FF2A28"/></linearGradient><linearGradient id="s" x1="34.631" y1="3.728" x2="36.41" y2="3.728" gradientUnits="userSpaceOnUse"><stop stop-color="#FF5825"/><stop offset="1" stop-color="#FF2A28"/></linearGradient><linearGradient id="t" x1="36.797" y1="5.472" x2="37.999" y2="5.472" gradientUnits="userSpaceOnUse"><stop stop-color="#FF5825"/><stop offset="1" stop-color="#FF2A28"/></linearGradient><linearGradient id="u" x1="38.896" y1="46.071" x2="53.116" y2="46.071" gradientUnits="userSpaceOnUse"><stop stop-color="#FF5825"/><stop offset="1" stop-color="#FF2A28"/></linearGradient><linearGradient id="v" x1="52.107" y1="44.279" x2="54.307" y2="44.279" gradientUnits="userSpaceOnUse"><stop stop-color="#FF5825"/><stop offset="1" stop-color="#FF2A28"/></linearGradient><linearGradient id="w" x1="55.539" y1="42.567" x2="56.766" y2="42.567" gradientUnits="userSpaceOnUse"><stop stop-color="#FF5825"/><stop offset="1" stop-color="#FF2A28"/></linearGradient><linearGradient id="x" x1="49.879" y1="7.98" x2="51.09" y2="7.98" gradientUnits="userSpaceOnUse"><stop stop-color="#FF5825"/><stop offset="1" stop-color="#FF2A28"/></linearGradient><linearGradient id="y" x1="52.483" y1="8.099" x2="58.217" y2="8.099" gradientUnits="userSpaceOnUse"><stop stop-color="#FF5825"/><stop offset="1" stop-color="#FF2A28"/></linearGradient><linearGradient id="z" x1="58.397" y1="10.127" x2="59.625" y2="10.127" gradientUnits="userSpaceOnUse"><stop stop-color="#FF5825"/><stop offset="1" stop-color="#FF2A28"/></linearGradient><linearGradient id="A" x1="4.648" y1="29.102" x2="13.556" y2="29.102" gradientUnits="userSpaceOnUse"><stop stop-color="#FF5825"/><stop offset="1" stop-color="#FF2A28"/></linearGradient><linearGradient id="B" x1="2.86" y1="23.849" x2="4.062" y2="23.849" gradientUnits="userSpaceOnUse"><stop stop-color="#FF5825"/><stop offset="1" stop-color="#FF2A28"/></linearGradient><linearGradient id="C" x1="33.143" y1="65.891" x2="34.354" y2="65.891" gradientUnits="userSpaceOnUse"><stop stop-color="#FF5825"/><stop offset="1" stop-color="#FF2A28"/></linearGradient><linearGradient id="D" x1="25.018" y1="58.66" x2="33.96" y2="58.66" gradientUnits="userSpaceOnUse"><stop stop-color="#FF5825"/><stop offset="1" stop-color="#FF2A28"/></linearGradient></defs></svg>