<svg width="58" height="73" viewBox="0 0 58 73" fill="none" xmlns="http://www.w3.org/2000/svg"><g opacity=".6"><path d="M37.58 3.515c-1.944.758-3.233 2.354-2.538 4.954.573 2.108 4.708 2.087 6.53 2.21 1.657.123 4.38.819 4.932-1.249.47-1.74-.675-4.891-2.333-5.69-1.842-.9-4.564-1.023-6.59-.245v.02Z" fill="#F37715"/><path d="M37.58 3.515c-1.944.758-3.233 2.354-2.538 4.954.573 2.108 4.708 2.087 6.53 2.21 1.657.123 4.38.819 4.932-1.249.47-1.74-.675-4.891-2.333-5.69-1.842-.9-4.564-1.023-6.59-.245v.02Z" fill="url(#a)"/></g><g opacity=".6"><path d="M47.713 28.056c-1.065-.47-2.416-.696-4.176-.614-3.847.143-14.675 2.047-17.274-1.085-1.699-2.067-.655-7.614-2.784-9.537-3.213-2.907-5.976 2.742-8.084 5.587-2.763 3.725-4.626 8.085-4.114 12.628.225 1.924.327 3.828.45 5.772 4.216.143 8.248-.655 12.485-.286 3.787.327 5.22 1.044 5.67-3.275.225-2.231.122-9.824 3.95-8.044 3.725 1.74 2.272 8.658 4.953 11.196 2.17 2.067 8.658.757 11.748.532.164-5.895 1.678-10.868-2.824-12.854v-.02ZM21.228 24.72c-.47 3.643-1.064 5.895-3.746 6.959-4.81 1.924-1.657-5.65-.225-7.757 1.986-2.907 4.544-3.705 3.971.798Z" fill="#F37715"/><path d="M47.713 28.056c-1.065-.47-2.416-.696-4.176-.614-3.847.143-14.675 2.047-17.274-1.085-1.699-2.067-.655-7.614-2.784-9.537-3.213-2.907-5.976 2.742-8.084 5.587-2.763 3.725-4.626 8.085-4.114 12.628.225 1.924.327 3.828.45 5.772 4.216.143 8.248-.655 12.485-.286 3.787.327 5.22 1.044 5.67-3.275.225-2.231.122-9.824 3.95-8.044 3.725 1.74 2.272 8.658 4.953 11.196 2.17 2.067 8.658.757 11.748.532.164-5.895 1.678-10.868-2.824-12.854v-.02ZM21.228 24.72c-.47 3.643-1.064 5.895-3.746 6.959-4.81 1.924-1.657-5.65-.225-7.757 1.986-2.907 4.544-3.705 3.971.798Z" fill="url(#b)"/></g><path d="M53.095 32.947c-.389-4.278-.819-8.555-.941-12.853-.062-1.74.552-4.728-.144-6.366-1.432-3.397-9.026-2.128-11.912-2.17-5.587-.06-11.277-.327-16.865.083l-1.371.122-1.146.84c-3.275 2.415-6.632 5.792-8.822 9.25-.634 1.004-1.637 4.872-2.497 5.281-1.085.512-2.681-1.432-3.5-1.924.696 1.576 3.111 3.48 3.152 4.851.062 2.067-.061 4.483-.04 6.57.04 5.015.347 9.804.654 14.798.266 4.196.41 8.412.737 12.587.164 1.965.102 4.974 1.597 6.489 3.09 3.131 12.32 1.003 16.148.982 6.55-.02 13.304 1.249 19.813.798 4.83-.327 5.28-4.789 5.772-9.005 1.146-10.05.225-20.324-.655-30.353l.02.02Zm-.675 29.985c-1.147 5.894-2.047 8.105-7.778 7.839-5.976-.287-14.225-.942-20.222-.655-4.544.225-11.318.696-12.014-3.828-1.023-6.61-1.31-14.716-1.637-21.265-.307-6.366-1.106-13.53 1.125-19.628 1.597-4.421 5.076-7.614 8.658-10.418.921-.717 1.985-1.556 3.152-1.78 2.415-.472 4.79.04 7.204.06 2.538.041 5.056-.06 7.594-.143 1.29-.04 2.558-.102 3.848-.123 4.646-.122 8.596-.225 8.494 5.936-.123 6.283.88 13.14 1.187 19.383.389 8.043 1.985 16.64.43 24.622h-.041Z" fill="#F37715"/><path d="M53.095 32.947c-.389-4.278-.819-8.555-.941-12.853-.062-1.74.552-4.728-.144-6.366-1.432-3.397-9.026-2.128-11.912-2.17-5.587-.06-11.277-.327-16.865.083l-1.371.122-1.146.84c-3.275 2.415-6.632 5.792-8.822 9.25-.634 1.004-1.637 4.872-2.497 5.281-1.085.512-2.681-1.432-3.5-1.924.696 1.576 3.111 3.48 3.152 4.851.062 2.067-.061 4.483-.04 6.57.04 5.015.347 9.804.654 14.798.266 4.196.41 8.412.737 12.587.164 1.965.102 4.974 1.597 6.489 3.09 3.131 12.32 1.003 16.148.982 6.55-.02 13.304 1.249 19.813.798 4.83-.327 5.28-4.789 5.772-9.005 1.146-10.05.225-20.324-.655-30.353l.02.02Zm-.675 29.985c-1.147 5.894-2.047 8.105-7.778 7.839-5.976-.287-14.225-.942-20.222-.655-4.544.225-11.318.696-12.014-3.828-1.023-6.61-1.31-14.716-1.637-21.265-.307-6.366-1.106-13.53 1.125-19.628 1.597-4.421 5.076-7.614 8.658-10.418.921-.717 1.985-1.556 3.152-1.78 2.415-.472 4.79.04 7.204.06 2.538.041 5.056-.06 7.594-.143 1.29-.04 2.558-.102 3.848-.123 4.646-.122 8.596-.225 8.494 5.936-.123 6.283.88 13.14 1.187 19.383.389 8.043 1.985 16.64.43 24.622h-.041Z" fill="url(#c)"/><path d="M33.528 10.106c-.204-1.924-.777-7.143.266-8.003C35.514.691 41.9.302 44.478.753c4.36.777 4.155 4.502 4.77 8.514.224 1.432-2.17 1.637-4.422 1.535 4.462-1.208 2.58-2.763 2.026-5.506-3.458 1.678-7.613.123-10.909-.737 2.948.512 6.243.512 8.658.287 3.91-.369 1.27-2.6-1.474-2.845-6.57-.553-9.005 0-8.596 4.79.164 1.882-.061 2.906 5.383 3.315-1.371.593-3.582.716-5.055.368l-1.33-.389v.02Z" fill="#F37715"/><path d="M33.528 10.106c-.204-1.924-.777-7.143.266-8.003C35.514.691 41.9.302 44.478.753c4.36.777 4.155 4.502 4.77 8.514.224 1.432-2.17 1.637-4.422 1.535 4.462-1.208 2.58-2.763 2.026-5.506-3.458 1.678-7.613.123-10.909-.737 2.948.512 6.243.512 8.658.287 3.91-.369 1.27-2.6-1.474-2.845-6.57-.553-9.005 0-8.596 4.79.164 1.882-.061 2.906 5.383 3.315-1.371.593-3.582.716-5.055.368l-1.33-.389v.02Z" fill="url(#d)"/><path d="M32.546 7.978c-1.556-.492-2.334-.533-3.95-.799-2.19-.348-4.708.041-7.123.225-1.494.103-3.377-.02-4.646.758-2.006 1.228-3.705 4.339-5.26 6.12-1.474 1.678-3.255 3.438-4.483 5.28-.92 1.371-2.394 2.722-2.947 4.298-.941 2.62-.327 6.447-.348 9.21-.02 2.354-.082 4.81-.205 7.164-.245 4.257-.225 8.617.062 12.874.245 3.295.47 7.9 2.292 10.745 1.065 1.658 2.968 4.544 4.749 5.363-1.085-1.78-2.784-4.032-3.5-5.383-3.193-5.956-1.76-10.52-2.17-16.353-.204-2.886.512-5.65.062-8.494-.45-2.825-.082-5.67-.041-8.535 0-1.576-.533-3.602 0-5.117.716-2.006 3.152-4.421 4.38-6.14a109.537 109.537 0 0 1 6.345-8.044c2.067-2.374 3.5-1.863 5.915-.225-.226-.716-1.802-1.74-2.19-2.252 3.56-.798 9.701-.88 12.935-.49l.143-.144-.02-.061Z" fill="#F37715"/><path d="M32.546 7.978c-1.556-.492-2.334-.533-3.95-.799-2.19-.348-4.708.041-7.123.225-1.494.103-3.377-.02-4.646.758-2.006 1.228-3.705 4.339-5.26 6.12-1.474 1.678-3.255 3.438-4.483 5.28-.92 1.371-2.394 2.722-2.947 4.298-.941 2.62-.327 6.447-.348 9.21-.02 2.354-.082 4.81-.205 7.164-.245 4.257-.225 8.617.062 12.874.245 3.295.47 7.9 2.292 10.745 1.065 1.658 2.968 4.544 4.749 5.363-1.085-1.78-2.784-4.032-3.5-5.383-3.193-5.956-1.76-10.52-2.17-16.353-.204-2.886.512-5.65.062-8.494-.45-2.825-.082-5.67-.041-8.535 0-1.576-.533-3.602 0-5.117.716-2.006 3.152-4.421 4.38-6.14a109.537 109.537 0 0 1 6.345-8.044c2.067-2.374 3.5-1.863 5.915-.225-.226-.716-1.802-1.74-2.19-2.252 3.56-.798 9.701-.88 12.935-.49l.143-.144-.02-.061Z" fill="url(#e)"/><path d="M13.777 33.807c.307.205.655.41 1.085.553-2.395-3.255-.43-6.284 1.535-9.21.941-1.413 4.134-6.468 5.67-5.404.88.614 1.248 3.745 1.514 4.748.368-1.637.757-5.424-.737-6.692-1.617-1.372-3.234 1.494-4.216 2.68-1.965 2.355-9.006 10.378-4.851 13.304v.021Z" fill="#F37715"/><path d="M13.777 33.807c.307.205.655.41 1.085.553-2.395-3.255-.43-6.284 1.535-9.21.941-1.413 4.134-6.468 5.67-5.404.88.614 1.248 3.745 1.514 4.748.368-1.637.757-5.424-.737-6.692-1.617-1.372-3.234 1.494-4.216 2.68-1.965 2.355-9.006 10.378-4.851 13.304v.021Z" fill="url(#f)"/><path d="M23.949 27.544c.307 4.768-2.886 8.023-7.287 8.105 1.781 1.678 5.322.47 6.489-1.433 1.023-1.699 1.105-4.933.798-6.877v.204Z" fill="#F37715"/><path d="M23.949 27.544c.307 4.768-2.886 8.023-7.287 8.105 1.781 1.678 5.322.47 6.489-1.433 1.023-1.699 1.105-4.933.798-6.877v.204Z" fill="url(#g)"/><path d="M34.1 33.91c-.245-1.392-.838-1.453-1.248-.798-.737 1.166-1.29 5.67-2.149 7.798-2.19 5.362-10.152 13.222-5.055 19.096 3.193 3.663 12.464 3.602 15.698.47 4.176-4.052 1.024-10.745-2.149-14.818-2.17-2.784-3.213-5.24-4.114-8.187-.164-.511-.737-2.313-.962-3.561h-.02Z" fill="#F37715"/><path d="M34.1 33.91c-.245-1.392-.838-1.453-1.248-.798-.737 1.166-1.29 5.67-2.149 7.798-2.19 5.362-10.152 13.222-5.055 19.096 3.193 3.663 12.464 3.602 15.698.47 4.176-4.052 1.024-10.745-2.149-14.818-2.17-2.784-3.213-5.24-4.114-8.187-.164-.511-.737-2.313-.962-3.561h-.02Z" fill="url(#h)"/><path d="M33.385 16.696a2.417 2.417 0 0 0-.573-.245c-1.125-.348-3.336-.758-4.4 0-1.33.941-1.494 2.927-1.433 4.36.04 1.248-.266 2.803.532 3.867 1.187 1.617 4.605 1.536 6.079.41 1.064-.819 1.269-2.722 1.33-3.95.082-1.679 0-3.623-1.514-4.462l-.02.02Zm-.532 6.57c-.512 1.208-2.415 1.351-3.418.737-.941-.573-1.064-1.76-1.126-2.763-.082-1.453-.307-2.558 1.146-3.397 1.003-.574 2.334-.574 3.153.306.982 1.044.736 3.93.245 5.117Z" fill="#F37715"/><path d="M33.385 16.696a2.417 2.417 0 0 0-.573-.245c-1.125-.348-3.336-.758-4.4 0-1.33.941-1.494 2.927-1.433 4.36.04 1.248-.266 2.803.532 3.867 1.187 1.617 4.605 1.536 6.079.41 1.064-.819 1.269-2.722 1.33-3.95.082-1.679 0-3.623-1.514-4.462l-.02.02Zm-.532 6.57c-.512 1.208-2.415 1.351-3.418.737-.941-.573-1.064-1.76-1.126-2.763-.082-1.453-.307-2.558 1.146-3.397 1.003-.574 2.334-.574 3.153.306.982 1.044.736 3.93.245 5.117Z" fill="url(#i)"/><path d="M37.335 25.804c1.248-.04.962-3.602.9-4.38-.061-.819-.102-1.596 0-2.435.041-.39.164-.84.123-1.228-.082-.737-1.31-1.617-1.637-.737-.184.491-.184 1.412-.184 1.658-.041 1.35-.082 2.68-.041 4.032 0 .696-.205 1.883.061 2.517.123.307.47.594.798.573h-.02Z" fill="#F37715"/><path d="M37.335 25.804c1.248-.04.962-3.602.9-4.38-.061-.819-.102-1.596 0-2.435.041-.39.164-.84.123-1.228-.082-.737-1.31-1.617-1.637-.737-.184.491-.184 1.412-.184 1.658-.041 1.35-.082 2.68-.041 4.032 0 .696-.205 1.883.061 2.517.123.307.47.594.798.573h-.02Z" fill="url(#j)"/><path d="M40.773 16.84c-.389-.082-.798.184-.962.92-.307 1.393 0 2.928.246 4.32.102.573.245 1.187.225 1.76-.02.614-.327 1.31.287 1.698.9.573 2.558.144 3.52.082 1.085-.061 2.436.164 3.48-.245.92-.369.777-1.105-.103-1.433-1.31-.47-2.804-.061-4.134.082-1.105.123-1.372-.328-1.535-1.371a16.175 16.175 0 0 1-.123-4.217c.082-.86-.389-1.514-.9-1.596Z" fill="#F37715"/><path d="M40.773 16.84c-.389-.082-.798.184-.962.92-.307 1.393 0 2.928.246 4.32.102.573.245 1.187.225 1.76-.02.614-.327 1.31.287 1.698.9.573 2.558.144 3.52.082 1.085-.061 2.436.164 3.48-.245.92-.369.777-1.105-.103-1.433-1.31-.47-2.804-.061-4.134.082-1.105.123-1.372-.328-1.535-1.371a16.175 16.175 0 0 1-.123-4.217c.082-.86-.389-1.514-.9-1.596Z" fill="url(#k)"/><g opacity=".6"><path d="M12.938 56.853c2.64.021 5.853-.634 8.391.123.635 5.342 2.6 8.27 8.044 8.842 4.933.512 10.48.696 14.388-2.968 1.965-1.842 2.334-3.909 1.515-6.426 1.35.163 4.871-.88 5.854-.062 1.35 1.126-.062 5.178-.348 6.59-1.126 5.445-3.05 6.612-8.556 6.284-4.462-.266-8.678-.675-13.16-.43-3.766.205-8.085.84-11.79-.225-4.031-1.166-4.052-4.196-4.461-7.798l.102-3.93h.02Z" fill="#F37715"/><path d="M12.938 56.853c2.64.021 5.853-.634 8.391.123.635 5.342 2.6 8.27 8.044 8.842 4.933.512 10.48.696 14.388-2.968 1.965-1.842 2.334-3.909 1.515-6.426 1.35.163 4.871-.88 5.854-.062 1.35 1.126-.062 5.178-.348 6.59-1.126 5.445-3.05 6.612-8.556 6.284-4.462-.266-8.678-.675-13.16-.43-3.766.205-8.085.84-11.79-.225-4.031-1.166-4.052-4.196-4.461-7.798l.102-3.93h.02Z" fill="url(#l)"/></g><path d="M54.118 23.328c-.143 4.175.43 7.307 1.207 11.441.737 3.992.471 9.62.942 13.836 1.023-3.745.614-6.18.634-8.883.02-3.295-.49-6.713-.941-10.008-.328-2.354-.86-4.687-1.27-7.02-.142-.799-.327-1.535-.756-2.252l.163 2.886h.02Z" fill="#F37715"/><path d="M54.118 23.328c-.143 4.175.43 7.307 1.207 11.441.737 3.992.471 9.62.942 13.836 1.023-3.745.614-6.18.634-8.883.02-3.295-.49-6.713-.941-10.008-.328-2.354-.86-4.687-1.27-7.02-.142-.799-.327-1.535-.756-2.252l.163 2.886h.02Z" fill="url(#m)"/><path d="M4.69 19.46c-.738.982-1.945 1.76-2.375 2.947-.553 1.473-.45 3.561-.532 5.137-.184 3.439.307 6.836.266 10.275 0 1.719.04 3.356-.307 5.035-.635-3.971-1.31-7.798-1.351-11.81-.02-3.172-.675-7.061 1.392-9.66.9-1.147 2.456-2.15 3.745-2.805l-.86.88h.021Z" fill="#F37715"/><path d="M4.69 19.46c-.738.982-1.945 1.76-2.375 2.947-.553 1.473-.45 3.561-.532 5.137-.184 3.439.307 6.836.266 10.275 0 1.719.04 3.356-.307 5.035-.635-3.971-1.31-7.798-1.351-11.81-.02-3.172-.675-7.061 1.392-9.66.9-1.147 2.456-2.15 3.745-2.805l-.86.88h.021Z" fill="url(#n)"/><path d="M7.391 14.384c-.696.593-1.269 1.33-1.74 2.128-.388.635.615 1.228 1.004.594.43-.716.941-1.351 1.576-1.883.573-.491-.246-1.29-.82-.819l-.02-.02Z" fill="#F37715"/><path d="M7.391 14.384c-.696.593-1.269 1.33-1.74 2.128-.388.635.615 1.228 1.004.594.43-.716.941-1.351 1.576-1.883.573-.491-.246-1.29-.82-.819l-.02-.02Z" fill="url(#o)"/><path d="m9.233 12.521-.184.123c-.02.02-.205.246-.102.123-.205.245-.246.573 0 .819.204.204.614.245.818 0l.041-.041c.02-.02.041-.041.041-.062.573-.41 0-1.371-.614-.982v.02Z" fill="#F37715"/><path d="m9.233 12.521-.184.123c-.02.02-.205.246-.102.123-.205.245-.246.573 0 .819.204.204.614.245.818 0l.041-.041c.02-.02.041-.041.041-.062.573-.41 0-1.371-.614-.982v.02Z" fill="url(#p)"/><path d="M2.11 44.757c-.164-.716-1.29-.409-1.106.307.041.205.082.39.082.594.02.737 1.187.737 1.167 0 0-.307-.062-.614-.144-.9Z" fill="#F37715"/><path d="M2.11 44.757c-.164-.716-1.29-.409-1.106.307.041.205.082.39.082.594.02.737 1.187.737 1.167 0 0-.307-.062-.614-.144-.9Z" fill="url(#q)"/><path d="M57.167 50.795c.082-.736-1.085-.736-1.167 0-.184 1.843-.409 3.644-.102 5.486.123.736 1.248.43 1.105-.307-.307-1.72-.04-3.46.144-5.179h.02Z" fill="#F37715"/><path d="M57.167 50.795c.082-.736-1.085-.736-1.167 0-.184 1.843-.409 3.644-.102 5.486.123.736 1.248.43 1.105-.307-.307-1.72-.04-3.46.144-5.179h.02Z" fill="url(#r)"/><path d="M55.92 58.389c-.062.286-.123.552-.144.839-.02.737 1.126.737 1.167 0 0-.184.04-.348.102-.532.184-.717-.941-1.023-1.105-.307h-.02Z" fill="#F37715"/><path d="M55.92 58.389c-.062.286-.123.552-.144.839-.02.737 1.126.737 1.167 0 0-.184.04-.348.102-.532.184-.717-.941-1.023-1.105-.307h-.02Z" fill="url(#s)"/><path d="M53.074 17.372v.86c0 .757 1.167.757 1.167 0v-.86c0-.737-1.167-.737-1.167 0Z" fill="#F37715"/><path d="M53.074 17.372v.86c0 .757 1.167.757 1.167 0v-.86c0-.737-1.167-.737-1.167 0Z" fill="url(#t)"/><defs><linearGradient id="a" x1="34.852" y1="6.935" x2="48.324" y2="6.935" gradientUnits="userSpaceOnUse"><stop stop-color="#FF5825"/><stop offset="1" stop-color="#FF2A28"/></linearGradient><linearGradient id="b" x1="11.196" y1="28.779" x2="56.701" y2="28.779" gradientUnits="userSpaceOnUse"><stop stop-color="#FF5825"/><stop offset="1" stop-color="#FF2A28"/></linearGradient><linearGradient id="c" x1="5.897" y1="41.871" x2="61.314" y2="41.871" gradientUnits="userSpaceOnUse"><stop stop-color="#FF5825"/><stop offset="1" stop-color="#FF2A28"/></linearGradient><linearGradient id="d" x1="33.186" y1="5.699" x2="51.605" y2="5.699" gradientUnits="userSpaceOnUse"><stop stop-color="#FF5825"/><stop offset="1" stop-color="#FF2A28"/></linearGradient><linearGradient id="e" x1="3.414" y1="38.128" x2="36.815" y2="38.128" gradientUnits="userSpaceOnUse"><stop stop-color="#FF5825"/><stop offset="1" stop-color="#FF2A28"/></linearGradient><linearGradient id="f" x1="12.487" y1="25.899" x2="25.583" y2="25.899" gradientUnits="userSpaceOnUse"><stop stop-color="#FF5825"/><stop offset="1" stop-color="#FF2A28"/></linearGradient><linearGradient id="g" x1="16.663" y1="31.892" x2="25.191" y2="31.892" gradientUnits="userSpaceOnUse"><stop stop-color="#FF5825"/><stop offset="1" stop-color="#FF2A28"/></linearGradient><linearGradient id="h" x1="23.974" y1="47.75" x2="46.175" y2="47.75" gradientUnits="userSpaceOnUse"><stop stop-color="#FF5825"/><stop offset="1" stop-color="#FF2A28"/></linearGradient><linearGradient id="i" x1="26.954" y1="20.969" x2="36.106" y2="20.969" gradientUnits="userSpaceOnUse"><stop stop-color="#FF5825"/><stop offset="1" stop-color="#FF2A28"/></linearGradient><linearGradient id="j" x1="36.42" y1="21.23" x2="38.65" y2="21.23" gradientUnits="userSpaceOnUse"><stop stop-color="#FF5825"/><stop offset="1" stop-color="#FF2A28"/></linearGradient><linearGradient id="k" x1="39.683" y1="21.329" x2="49.437" y2="21.329" gradientUnits="userSpaceOnUse"><stop stop-color="#FF5825"/><stop offset="1" stop-color="#FF2A28"/></linearGradient><linearGradient id="l" x1="12.815" y1="62.666" x2="57.373" y2="62.666" gradientUnits="userSpaceOnUse"><stop stop-color="#FF5825"/><stop offset="1" stop-color="#FF2A28"/></linearGradient><linearGradient id="m" x1="53.934" y1="34.524" x2="57.407" y2="34.524" gradientUnits="userSpaceOnUse"><stop stop-color="#FF5825"/><stop offset="1" stop-color="#FF2A28"/></linearGradient><linearGradient id="n" x1=".277" y1="30.716" x2="6.294" y2="30.716" gradientUnits="userSpaceOnUse"><stop stop-color="#FF5825"/><stop offset="1" stop-color="#FF2A28"/></linearGradient><linearGradient id="o" x1="5.564" y1="15.819" x2="8.842" y2="15.819" gradientUnits="userSpaceOnUse"><stop stop-color="#FF5825"/><stop offset="1" stop-color="#FF2A28"/></linearGradient><linearGradient id="p" x1="8.777" y1="13.082" x2="10.274" y2="13.082" gradientUnits="userSpaceOnUse"><stop stop-color="#FF5825"/><stop offset="1" stop-color="#FF2A28"/></linearGradient><linearGradient id="q" x1=".984" y1="45.28" x2="2.438" y2="45.28" gradientUnits="userSpaceOnUse"><stop stop-color="#FF5825"/><stop offset="1" stop-color="#FF2A28"/></linearGradient><linearGradient id="r" x1="55.747" y1="53.473" x2="57.379" y2="53.473" gradientUnits="userSpaceOnUse"><stop stop-color="#FF5825"/><stop offset="1" stop-color="#FF2A28"/></linearGradient><linearGradient id="s" x1="55.776" y1="58.881" x2="57.254" y2="58.881" gradientUnits="userSpaceOnUse"><stop stop-color="#FF5825"/><stop offset="1" stop-color="#FF2A28"/></linearGradient><linearGradient id="t" x1="53.074" y1="17.809" x2="54.411" y2="17.809" gradientUnits="userSpaceOnUse"><stop stop-color="#FF5825"/><stop offset="1" stop-color="#FF2A28"/></linearGradient></defs></svg>