<svg width="50" height="26" viewBox="0 0 50 26" fill="none" xmlns="http://www.w3.org/2000/svg"><path fill-rule="evenodd" clip-rule="evenodd" d="M18.783 7.655c1.171 0 1.994-.59 1.994-1.644v-.015c0-.923-.621-1.31-1.723-1.589-.939-.235-1.172-.35-1.172-.696v-.016c0-.258.241-.462.698-.462.373 0 .746.129 1.141.356a.585.585 0 0 0 .303.083c.31 0 .559-.235.559-.537a.53.53 0 0 0-.264-.463 3.216 3.216 0 0 0-1.723-.469c-1.11 0-1.901.636-1.901 1.598v.015c0 1.053.706 1.348 1.8 1.62.909.227 1.095.379 1.095.674v.016c0 .31-.296.498-.785.498-.527 0-.977-.18-1.389-.476a.587.587 0 0 0-.341-.106.544.544 0 0 0-.559.538.54.54 0 0 0 .225.438c.598.416 1.31.638 2.042.637Zm11.438-3.15h-.329a.507.507 0 0 1-.465-.303.49.49 0 0 1 0-.379.492.492 0 0 1 .273-.266.506.506 0 0 1 .192-.036h.33v-.507c0-.318.263-.576.59-.576.325 0 .589.258.589.576v.507h.668a.506.506 0 0 1 .465.302.487.487 0 0 1-.272.646.505.505 0 0 1-.193.036h-.668V6.24c0 .265.117.394.38.394.04 0 .117-.009.14-.009.265 0 .489.213.489.478a.468.468 0 0 1-.302.432 1.78 1.78 0 0 1-.675.112c-.722 0-1.212-.279-1.212-1.218V4.505Zm3.92 4.308c.706 0 1.055-.31 1.405-1.136l1.45-3.4a.827.827 0 0 0 .055-.272c0-.303-.256-.53-.558-.53-.303 0-.473.197-.567.44l-.87 2.354-.899-2.362c-.102-.273-.272-.432-.567-.432-.326 0-.582.227-.582.553 0 .075.03.19.062.265l1.42 3.21-.038.09c-.109.205-.21.244-.42.244a.797.797 0 0 1-.248-.046.555.555 0 0 0-.193-.03.465.465 0 0 0-.466.469c0 .28.201.416.372.477.194.068.38.106.644.106Zm-7.1-4.308h-.355a.498.498 0 0 1-.504-.492.489.489 0 0 1 .312-.456.506.506 0 0 1 .192-.036h.355v-.507c0-.318.264-.576.59-.576.326 0 .59.258.59.576v.507h.52c.28 0 .505.22.505.492a.498.498 0 0 1-.505.492h-.52V6.24c0 .265.117.394.38.394.04 0 .118-.009.14-.009.265 0 .49.213.49.478 0 .204-.14.371-.303.432a1.776 1.776 0 0 1-.675.112c-.722 0-1.212-.279-1.212-1.218V4.505Zm-2.387-.454c-.279-.326-.667-.606-1.296-.606-.985 0-1.893.742-1.893 2.097v.015c0 1.356.924 2.098 1.893 2.098.614 0 1.01-.28 1.296-.66v.054c0 .318.265.575.591.575.326 0 .59-.257.59-.575V4.051a.582.582 0 0 0-.59-.576.582.582 0 0 0-.59.568v.008Zm-.993.37c.551 0 1.01.448 1.01 1.121v.015c0 .674-.459 1.121-1.01 1.121-.55 0-1.016-.447-1.016-1.12v-.016c0-.682.465-1.12 1.016-1.12Zm20.1 9.804h2.634c.262 0 .478-.198.478-.448a.47.47 0 0 0-.477-.456h-1.71l1.925-2.023c.185-.19.262-.33.262-.543v-.023c0-.265-.239-.449-.57-.449h-2.566a.47.47 0 0 0-.477.457c0 .25.215.448.477.448h1.633l-1.918 2.022c-.185.192-.262.332-.262.544v.023c0 .264.239.448.57.448Zm-3.928 1.199c.7 0 1.048-.301 1.394-1.103l1.442-3.302a.832.832 0 0 0 .053-.264c0-.295-.254-.516-.555-.516-.3 0-.47.192-.562.427l-.863 2.287-.894-2.294c-.1-.265-.27-.42-.562-.42-.324 0-.578.221-.578.537a.81.81 0 0 0 .061.258l1.41 3.117-.038.088c-.108.2-.208.236-.416.236a.814.814 0 0 1-.247-.044.584.584 0 0 0-.192-.029.456.456 0 0 0-.463.456c0 .271.201.404.37.462.192.067.378.104.64.104Zm-1.862-6.052a.572.572 0 0 0-.585-.559.573.573 0 0 0-.586.56v1.426c-.277-.316-.662-.589-1.287-.589-.979 0-1.88.721-1.88 2.037v.015c0 1.316.917 2.036 1.88 2.036.61 0 1.002-.271 1.287-.64v.052c0 .309.262.56.586.56.324 0 .585-.251.585-.56V9.372Zm-2.157 1.787c.547 0 1.002.434 1.002 1.088v.015c0 .654-.455 1.088-1.002 1.088-.547 0-1.01-.434-1.01-1.088v-.015c0-.662.463-1.088 1.01-1.088Zm-4.227 2.552c0 .308.261.558.585.558.324 0 .586-.25.586-.559V9.372a.573.573 0 0 0-.586-.559.572.572 0 0 0-.585.56v4.337Zm-1.061-2.912a.573.573 0 0 0-.585-.56.572.572 0 0 0-.586.56v1.683c0 .53-.285.802-.732.802s-.71-.272-.71-.802v-1.683a.573.573 0 0 0-.584-.56.573.573 0 0 0-.587.56v2.036c0 .905.517 1.463 1.403 1.463.594 0 .94-.3 1.21-.632v.044c0 .309.262.56.586.56.323 0 .585-.251.585-.56v-2.912Zm-8.512 2.911c0 .309.263.56.586.56.324 0 .586-.251.586-.56v-1.683c0-.53.285-.802.732-.802s.708.272.708.802v1.683c0 .309.263.56.586.56.324 0 .586-.251.586-.56v-2.037c0-.904-.516-1.463-1.403-1.463-.593 0-.94.302-1.21.633v-1.47a.572.572 0 0 0-.585-.56.573.573 0 0 0-.586.56v4.337Zm-4.974.515h3.536c.286 0 .525-.22.525-.492s-.239-.5-.525-.5h-2.489l2.797-3.103c.139-.163.216-.331.216-.53v-.022c0-.272-.238-.5-.524-.5h-3.444c-.285 0-.524.228-.524.5s.239.493.524.493h2.396l-2.797 3.103a.777.777 0 0 0-.215.529v.023c0 .271.239.5.523.5Z" fill="#fff"/><mask id="a" style="mask-type:alpha" maskUnits="userSpaceOnUse" x="0" y="0" width="50" height="26"><path d="M0 0h49.917v25.836H0V0Z" fill="#fff"/></mask><g mask="url(#a)" fill-rule="evenodd" clip-rule="evenodd" fill="#fff"><path d="M49.184 9.69c-.37 0-.73.292-.73.72 0 .429.36.722.73.722.373 0 .73-.293.73-.721a.726.726 0 0 0-.73-.722Zm0 .13c.3 0 .587.239.587.59a.588.588 0 0 1-1.13.225.576.576 0 0 1-.042-.224c0-.352.285-.59.585-.59Zm-.004.194h-.267v.777h.098v-.294h.15l.22.294h.111l-.226-.297c.134-.029.212-.12.212-.235 0-.142-.115-.245-.298-.245Zm.004.091c.12 0 .191.06.191.154 0 .097-.07.15-.191.15h-.173v-.304h.173ZM4.82 9.47l-3.648.686c-.161.03-.335.079-.499.06a.79.79 0 0 1-.46-.218.73.73 0 0 1-.15-.808c.075-.169.28-.37.404-.514L2.755 6.04.859 2.716a1.47 1.47 0 0 1-.07-.134.716.716 0 0 1 0-.588c.07-.154.19-.28.341-.358a.772.772 0 0 1 .493-.073c.111.02.272.094.396.142l3.453 1.362L8.183.248l.045-.043a.772.772 0 0 1 .83-.143c.29.122.46.4.455.687 0 .021 0 .041-.002.062l-.286 3.846 3.378 1.532c.121.054.286.12.377.185a.732.732 0 0 1 .297.704.726.726 0 0 1-.5.582c-.05.018-.096.029-.148.041l-3.796.912c1.611 8.564 9.337 15.056 18.626 15.056 5.681 0 10.778-2.43 14.249-6.275a.587.587 0 0 1 .442-.199c.477 0 .735.503.475.886a4.21 4.21 0 0 1-.303.384 21.934 21.934 0 0 1-1.842 1.834c-3.843 3.437-8.973 5.537-14.61 5.537-10.294 0-18.902-7.001-21.05-16.366Z"/></g></svg>