<svg width="34" height="26" viewBox="0 0 34 26" fill="none" xmlns="http://www.w3.org/2000/svg"><path fill-rule="evenodd" clip-rule="evenodd" d="M.942 13.746a.843.843 0 0 1 .799-1.484l6.56 3.545a.843.843 0 0 1-.066 1.514l-1.293.56c1.84.859 4.673 2.195 5.922 2.863 1.284.69 2.365 1.189 3.198 1.575.36.165.676.312.967.455a.84.84 0 0 1 .382 1.128.84.84 0 0 1-1.128.382c-.243-.121-.564-.269-.929-.438-.832-.386-1.913-.885-3.284-1.623-1.778-.954-6.906-3.318-7.488-3.587a.841.841 0 0 1-.039-1.562l1.428-.616-5.029-2.716v.004Z" fill="#F37715"/><path fill-rule="evenodd" clip-rule="evenodd" d="M.942 13.746a.843.843 0 0 1 .799-1.484l6.56 3.545a.843.843 0 0 1-.066 1.514l-1.293.56c1.84.859 4.673 2.195 5.922 2.863 1.284.69 2.365 1.189 3.198 1.575.36.165.676.312.967.455a.84.84 0 0 1 .382 1.128.84.84 0 0 1-1.128.382c-.243-.121-.564-.269-.929-.438-.832-.386-1.913-.885-3.284-1.623-1.778-.954-6.906-3.318-7.488-3.587a.841.841 0 0 1-.039-1.562l1.428-.616-5.029-2.716v.004Z" fill="url(#a)"/><path fill-rule="evenodd" clip-rule="evenodd" d="M1.745 13.746A.849.849 0 0 1 .6 13.408a.849.849 0 0 1 .338-1.146l4.88-2.646-1.34-.72a.842.842 0 0 1 .044-1.505c.017-.01 5.657-2.604 7.54-3.614a36.07 36.07 0 0 1 2.295-1.15 17.479 17.479 0 0 1 1.51-.599.843.843 0 0 1 .538 1.597c-.4.134-.825.295-1.363.538-.564.251-1.258.594-2.19 1.093-1.293.694-4.274 2.095-6.105 2.95l1.172.63a.843.843 0 0 1 .07 1.514l-6.253 3.392.01.004Z" fill="#F37715"/><path fill-rule="evenodd" clip-rule="evenodd" d="M1.745 13.746A.849.849 0 0 1 .6 13.408a.849.849 0 0 1 .338-1.146l4.88-2.646-1.34-.72a.842.842 0 0 1 .044-1.505c.017-.01 5.657-2.604 7.54-3.614a36.07 36.07 0 0 1 2.295-1.15 17.479 17.479 0 0 1 1.51-.599.843.843 0 0 1 .538 1.597c-.4.134-.825.295-1.363.538-.564.251-1.258.594-2.19 1.093-1.293.694-4.274 2.095-6.105 2.95l1.172.63a.843.843 0 0 1 .07 1.514l-6.253 3.392.01.004Z" fill="url(#b)"/><path fill-rule="evenodd" clip-rule="evenodd" d="M15.828 24.032a.846.846 0 0 1-.39-1.127.842.842 0 0 1 1.127-.39c.711.346 1.466.615 2.247.797.76.174 1.558.265 2.382.265 2.92 0 5.566-1.184 7.48-3.098A10.548 10.548 0 0 0 31.77 13c0-2.92-1.184-5.566-3.098-7.48a10.548 10.548 0 0 0-7.479-3.097c-.95 0-1.865.126-2.737.356a10.46 10.46 0 0 0-2.538 1.045.84.84 0 0 1-1.146-.308.84.84 0 0 1 .308-1.145c.916-.53 1.905-.941 2.946-1.22A12.327 12.327 0 0 1 21.19.736a12.22 12.22 0 0 1 8.672 3.593A12.22 12.22 0 0 1 33.454 13a12.22 12.22 0 0 1-3.592 8.672 12.237 12.237 0 0 1-8.672 3.593 12.33 12.33 0 0 1-5.367-1.233h.005Z" fill="#F37715"/><path fill-rule="evenodd" clip-rule="evenodd" d="M15.828 24.032a.846.846 0 0 1-.39-1.127.842.842 0 0 1 1.127-.39c.711.346 1.466.615 2.247.797.76.174 1.558.265 2.382.265 2.92 0 5.566-1.184 7.48-3.098A10.548 10.548 0 0 0 31.77 13c0-2.92-1.184-5.566-3.098-7.48a10.548 10.548 0 0 0-7.479-3.097c-.95 0-1.865.126-2.737.356a10.46 10.46 0 0 0-2.538 1.045.84.84 0 0 1-1.146-.308.84.84 0 0 1 .308-1.145c.916-.53 1.905-.941 2.946-1.22A12.327 12.327 0 0 1 21.19.736a12.22 12.22 0 0 1 8.672 3.593A12.22 12.22 0 0 1 33.454 13a12.22 12.22 0 0 1-3.592 8.672 12.237 12.237 0 0 1-8.672 3.593 12.33 12.33 0 0 1-5.367-1.233h.005Z" fill="url(#c)"/><path fill-rule="evenodd" clip-rule="evenodd" d="M.942 13.746a.843.843 0 0 1 .799-1.484l6.56 3.545a.843.843 0 0 1-.066 1.514l-1.293.56c1.84.859 4.673 2.195 5.922 2.863 1.284.69 2.365 1.189 3.198 1.575.36.165.676.312.967.455a.84.84 0 0 1 .382 1.128.84.84 0 0 1-1.128.382c-.243-.121-.564-.269-.929-.438-.832-.386-1.913-.885-3.284-1.623-1.778-.954-6.906-3.318-7.488-3.587a.841.841 0 0 1-.039-1.562l1.428-.616-5.029-2.716v.004Z" fill="#F37715"/><path fill-rule="evenodd" clip-rule="evenodd" d="M.942 13.746a.843.843 0 0 1 .799-1.484l6.56 3.545a.843.843 0 0 1-.066 1.514l-1.293.56c1.84.859 4.673 2.195 5.922 2.863 1.284.69 2.365 1.189 3.198 1.575.36.165.676.312.967.455a.84.84 0 0 1 .382 1.128.84.84 0 0 1-1.128.382c-.243-.121-.564-.269-.929-.438-.832-.386-1.913-.885-3.284-1.623-1.778-.954-6.906-3.318-7.488-3.587a.841.841 0 0 1-.039-1.562l1.428-.616-5.029-2.716v.004Z" fill="url(#d)"/><path fill-rule="evenodd" clip-rule="evenodd" d="M1.745 13.746A.849.849 0 0 1 .6 13.408a.849.849 0 0 1 .338-1.146l4.88-2.646-1.34-.72a.842.842 0 0 1 .044-1.505c.017-.01 5.657-2.604 7.54-3.614a36.07 36.07 0 0 1 2.295-1.15 17.479 17.479 0 0 1 1.51-.599.843.843 0 0 1 .538 1.597c-.4.134-.825.295-1.363.538-.564.251-1.258.594-2.19 1.093-1.293.694-4.274 2.095-6.105 2.95l1.172.63a.843.843 0 0 1 .07 1.514l-6.253 3.392.01.004Z" fill="#F37715"/><path fill-rule="evenodd" clip-rule="evenodd" d="M1.745 13.746A.849.849 0 0 1 .6 13.408a.849.849 0 0 1 .338-1.146l4.88-2.646-1.34-.72a.842.842 0 0 1 .044-1.505c.017-.01 5.657-2.604 7.54-3.614a36.07 36.07 0 0 1 2.295-1.15 17.479 17.479 0 0 1 1.51-.599.843.843 0 0 1 .538 1.597c-.4.134-.825.295-1.363.538-.564.251-1.258.594-2.19 1.093-1.293.694-4.274 2.095-6.105 2.95l1.172.63a.843.843 0 0 1 .07 1.514l-6.253 3.392.01.004Z" fill="url(#e)"/><path fill-rule="evenodd" clip-rule="evenodd" d="M15.828 24.032a.846.846 0 0 1-.39-1.127.842.842 0 0 1 1.127-.39c.711.346 1.466.615 2.247.797.76.174 1.558.265 2.382.265 2.92 0 5.566-1.184 7.48-3.098A10.548 10.548 0 0 0 31.77 13c0-2.92-1.184-5.566-3.098-7.48a10.548 10.548 0 0 0-7.479-3.097c-.95 0-1.865.126-2.737.356a10.46 10.46 0 0 0-2.538 1.045.84.84 0 0 1-1.146-.308.84.84 0 0 1 .308-1.145c.916-.53 1.905-.941 2.946-1.22A12.327 12.327 0 0 1 21.19.736a12.22 12.22 0 0 1 8.672 3.593A12.22 12.22 0 0 1 33.454 13a12.22 12.22 0 0 1-3.592 8.672 12.237 12.237 0 0 1-8.672 3.593 12.33 12.33 0 0 1-5.367-1.233h.005Z" fill="#F37715"/><path fill-rule="evenodd" clip-rule="evenodd" d="M15.828 24.032a.846.846 0 0 1-.39-1.127.842.842 0 0 1 1.127-.39c.711.346 1.466.615 2.247.797.76.174 1.558.265 2.382.265 2.92 0 5.566-1.184 7.48-3.098A10.548 10.548 0 0 0 31.77 13c0-2.92-1.184-5.566-3.098-7.48a10.548 10.548 0 0 0-7.479-3.097c-.95 0-1.865.126-2.737.356a10.46 10.46 0 0 0-2.538 1.045.84.84 0 0 1-1.146-.308.84.84 0 0 1 .308-1.145c.916-.53 1.905-.941 2.946-1.22A12.327 12.327 0 0 1 21.19.736a12.22 12.22 0 0 1 8.672 3.593A12.22 12.22 0 0 1 33.454 13a12.22 12.22 0 0 1-3.592 8.672 12.237 12.237 0 0 1-8.672 3.593 12.33 12.33 0 0 1-5.367-1.233h.005Z" fill="url(#f)"/><path fill-rule="evenodd" clip-rule="evenodd" d="M23.03 11.148a.89.89 0 0 1 0 1.779h-4.643a.89.89 0 0 1-.889-.89c0-.49.4-.89.89-.89h4.641Z" fill="#F37715"/><path fill-rule="evenodd" clip-rule="evenodd" d="M23.03 11.148a.89.89 0 0 1 0 1.779h-4.643a.89.89 0 0 1-.889-.89c0-.49.4-.89.89-.89h4.641Z" fill="url(#g)"/><path fill-rule="evenodd" clip-rule="evenodd" d="M23.03 8.735a.89.89 0 0 1 0 1.779h-4.643a.89.89 0 0 1 0-1.779h4.642Z" fill="#F37715"/><path fill-rule="evenodd" clip-rule="evenodd" d="M23.03 8.735a.89.89 0 0 1 0 1.779h-4.643a.89.89 0 0 1 0-1.779h4.642Z" fill="url(#h)"/><path fill-rule="evenodd" clip-rule="evenodd" d="M19.824 12.536a.89.89 0 0 1 1.778 0v4.347a.89.89 0 0 1-1.778 0v-4.347Z" fill="#F37715"/><path fill-rule="evenodd" clip-rule="evenodd" d="M19.824 12.536a.89.89 0 0 1 1.778 0v4.347a.89.89 0 0 1-1.778 0v-4.347Z" fill="url(#i)"/><path fill-rule="evenodd" clip-rule="evenodd" d="M23.03 11.148a.89.89 0 0 1 0 1.779h-4.643a.89.89 0 0 1-.889-.89c0-.49.4-.89.89-.89h4.641Z" fill="#F37715"/><path fill-rule="evenodd" clip-rule="evenodd" d="M23.03 11.148a.89.89 0 0 1 0 1.779h-4.643a.89.89 0 0 1-.889-.89c0-.49.4-.89.89-.89h4.641Z" fill="url(#j)"/><path fill-rule="evenodd" clip-rule="evenodd" d="M23.03 8.735a.89.89 0 0 1 0 1.779h-4.643a.89.89 0 0 1 0-1.779h4.642Z" fill="#F37715"/><path fill-rule="evenodd" clip-rule="evenodd" d="M23.03 8.735a.89.89 0 0 1 0 1.779h-4.643a.89.89 0 0 1 0-1.779h4.642Z" fill="url(#k)"/><path fill-rule="evenodd" clip-rule="evenodd" d="M19.824 12.536a.89.89 0 0 1 1.778 0v4.347a.89.89 0 0 1-1.778 0v-4.347Z" fill="#F37715"/><path fill-rule="evenodd" clip-rule="evenodd" d="M19.824 12.536a.89.89 0 0 1 1.778 0v4.347a.89.89 0 0 1-1.778 0v-4.347Z" fill="url(#l)"/><path fill-rule="evenodd" clip-rule="evenodd" d="M20.886 5.423a7.68 7.68 0 0 0-5.444 2.256 7.68 7.68 0 0 0-2.256 5.445 7.68 7.68 0 0 0 2.256 5.444 7.68 7.68 0 0 0 5.444 2.256 7.68 7.68 0 0 0 5.445-2.256 7.68 7.68 0 0 0 2.256-5.444 7.68 7.68 0 0 0-2.256-5.445 7.68 7.68 0 0 0-5.445-2.256ZM14.25 6.486a9.35 9.35 0 0 1 6.637-2.75 9.35 9.35 0 0 1 6.638 2.75 9.358 9.358 0 0 1 2.75 6.638c0 2.59-1.05 4.937-2.75 6.637a9.35 9.35 0 0 1-6.638 2.75 9.35 9.35 0 0 1-6.637-2.75 9.343 9.343 0 0 1-2.751-6.637 9.35 9.35 0 0 1 2.75-6.638Z" fill="#fff"/><defs><linearGradient id="a" x1="16.976" y1="25.265" x2="16.976" y2="-2.84" gradientUnits="userSpaceOnUse"><stop stop-color="#FF5825"/><stop offset="1" stop-color="#FF2A28"/></linearGradient><linearGradient id="b" x1="16.976" y1="25.265" x2="16.976" y2="-2.84" gradientUnits="userSpaceOnUse"><stop stop-color="#FF5825"/><stop offset="1" stop-color="#FF2A28"/></linearGradient><linearGradient id="c" x1="16.976" y1="25.265" x2="16.976" y2="-2.84" gradientUnits="userSpaceOnUse"><stop stop-color="#FF5825"/><stop offset="1" stop-color="#FF2A28"/></linearGradient><linearGradient id="d" x1="16.976" y1="25.265" x2="16.976" y2="-2.84" gradientUnits="userSpaceOnUse"><stop stop-color="#FF5825"/><stop offset="1" stop-color="#FF2A28"/></linearGradient><linearGradient id="e" x1="16.976" y1="25.265" x2="16.976" y2="-2.84" gradientUnits="userSpaceOnUse"><stop stop-color="#FF5825"/><stop offset="1" stop-color="#FF2A28"/></linearGradient><linearGradient id="f" x1="16.976" y1="25.265" x2="16.976" y2="-2.84" gradientUnits="userSpaceOnUse"><stop stop-color="#FF5825"/><stop offset="1" stop-color="#FF2A28"/></linearGradient><linearGradient id="g" x1="17.498" y1="13.254" x2="24.855" y2="13.254" gradientUnits="userSpaceOnUse"><stop stop-color="#FF5825"/><stop offset="1" stop-color="#FF2A28"/></linearGradient><linearGradient id="h" x1="17.498" y1="13.254" x2="24.855" y2="13.254" gradientUnits="userSpaceOnUse"><stop stop-color="#FF5825"/><stop offset="1" stop-color="#FF2A28"/></linearGradient><linearGradient id="i" x1="17.498" y1="13.254" x2="24.855" y2="13.254" gradientUnits="userSpaceOnUse"><stop stop-color="#FF5825"/><stop offset="1" stop-color="#FF2A28"/></linearGradient><linearGradient id="j" x1="17.498" y1="13.254" x2="24.855" y2="13.254" gradientUnits="userSpaceOnUse"><stop stop-color="#FF5825"/><stop offset="1" stop-color="#FF2A28"/></linearGradient><linearGradient id="k" x1="17.498" y1="13.254" x2="24.855" y2="13.254" gradientUnits="userSpaceOnUse"><stop stop-color="#FF5825"/><stop offset="1" stop-color="#FF2A28"/></linearGradient><linearGradient id="l" x1="17.498" y1="13.254" x2="24.855" y2="13.254" gradientUnits="userSpaceOnUse"><stop stop-color="#FF5825"/><stop offset="1" stop-color="#FF2A28"/></linearGradient></defs></svg>