<svg width="43" height="28" viewBox="0 0 43 28" fill="none" xmlns="http://www.w3.org/2000/svg"><path fill-rule="evenodd" clip-rule="evenodd" d="M29.216 14.27a.949.949 0 0 1-1.341 1.342l-1.864-1.864a.95.95 0 0 1 1.341-1.341l1.864 1.864Z" fill="url(#a)"/><path fill-rule="evenodd" clip-rule="evenodd" d="M31.825 10.437a.949.949 0 0 1 1.34 1.341l-3.93 3.931a.949.949 0 0 1-1.341-1.341l3.93-3.931Z" fill="url(#b)"/><path d="M28.693 22.998c4.995 0 9.028-4.024 9.014-8.996-.014-4.971-4.074-9-9.07-9-4.994 0-9.027 4.024-9.013 8.996.014 4.971 4.075 9 9.07 9Zm-.05-16.326c4.065 0 7.371 3.284 7.385 7.33.014 4.047-3.27 7.326-7.335 7.326-4.065 0-7.371-3.284-7.385-7.33-.014-4.047 3.27-7.326 7.335-7.326Z" fill="url(#c)"/><path d="M15.383 20.404a.908.908 0 0 0-.915.91c0 .505.416.916.925.916h6.326a10.635 10.635 0 0 1-1.734-1.826h-4.602Z" fill="url(#d)"/><path d="M14.417 6.663c0 .504.416.916.925.916h4.597c.5-.67 1.082-1.286 1.725-1.827h-6.327a.908.908 0 0 0-.915.911h-.005Z" fill="url(#e)"/><path d="M8.303 10.326c0 .504.416.916.925.916h8.953c.167-.63.389-1.244.662-1.827h-9.62a.902.902 0 0 0-.916.91h-.004Z" fill="url(#f)"/><path d="M9.247 16.74a.902.902 0 0 0-.916.911c0 .505.416.916.925.916h9.624a10.503 10.503 0 0 1-.675-1.827H9.247Z" fill="url(#g)"/><path d="M17.834 13.993c0-.31.014-.615.038-.915l-14.652-.01a.912.912 0 0 0-.915.916c0 .504.416.916.925.916l14.65.01c-.027-.302-.04-.607-.046-.917Z" fill="url(#h)"/><path d="M40.644 14.003C40.62 7.417 35.242 2.075 28.624 2.07c-.236 0-.472.009-.703.023h-8.075a.905.905 0 0 0-.915.911c0 .504.416.916.925.916h9.217v.004c5.392.232 9.707 4.653 9.725 10.078.019 5.253-4.01 9.568-9.166 10.035v.037H19.92a.902.902 0 0 0-.915.911c0 .504.416.916.925.916h8.079c.231.018.462.028.698.028 6.618 0 11.965-5.337 11.946-11.923l-.01-.004Z" fill="url(#i)"/><path d="M28.686 22.998c4.995 0 9.028-4.023 9.014-8.995-.014-4.971-4.075-9-9.07-9-4.994 0-9.027 4.024-9.013 8.995.014 4.972 4.075 9 9.07 9Zm-.05-16.325c4.064 0 7.371 3.283 7.385 7.33.014 4.047-3.27 7.326-7.335 7.326-4.065 0-7.372-3.284-7.385-7.33-.014-4.047 3.27-7.326 7.334-7.326Z" fill="#fff"/><defs><linearGradient id="a" x1="2.305" y1="14" x2="46.242" y2="14" gradientUnits="userSpaceOnUse"><stop stop-color="#FF5825"/><stop offset="1" stop-color="#FF2A28"/></linearGradient><linearGradient id="b" x1="2.305" y1="14" x2="46.242" y2="14" gradientUnits="userSpaceOnUse"><stop stop-color="#FF5825"/><stop offset="1" stop-color="#FF2A28"/></linearGradient><linearGradient id="c" x1="2.305" y1="14" x2="46.242" y2="14" gradientUnits="userSpaceOnUse"><stop stop-color="#FF5825"/><stop offset="1" stop-color="#FF2A28"/></linearGradient><linearGradient id="d" x1="2.305" y1="14" x2="46.242" y2="14" gradientUnits="userSpaceOnUse"><stop stop-color="#FF5825"/><stop offset="1" stop-color="#FF2A28"/></linearGradient><linearGradient id="e" x1="2.305" y1="14" x2="46.242" y2="14" gradientUnits="userSpaceOnUse"><stop stop-color="#FF5825"/><stop offset="1" stop-color="#FF2A28"/></linearGradient><linearGradient id="f" x1="2.305" y1="14" x2="46.242" y2="14" gradientUnits="userSpaceOnUse"><stop stop-color="#FF5825"/><stop offset="1" stop-color="#FF2A28"/></linearGradient><linearGradient id="g" x1="2.305" y1="14" x2="46.242" y2="14" gradientUnits="userSpaceOnUse"><stop stop-color="#FF5825"/><stop offset="1" stop-color="#FF2A28"/></linearGradient><linearGradient id="h" x1="2.305" y1="14" x2="46.242" y2="14" gradientUnits="userSpaceOnUse"><stop stop-color="#FF5825"/><stop offset="1" stop-color="#FF2A28"/></linearGradient><linearGradient id="i" x1="2.305" y1="14" x2="46.242" y2="14" gradientUnits="userSpaceOnUse"><stop stop-color="#FF5825"/><stop offset="1" stop-color="#FF2A28"/></linearGradient></defs></svg>